<?xml version="1.0" encoding="UTF-8" standalone="no"?>
<svg
   version="1.1"
   width="792pt"
   height="612pt"
   id="svg111"
   viewBox="0 0 792 612"
   sodipodi:docname="O S logo Hmbrg 00.cdr"
   xmlns:inkscape="http://www.inkscape.org/namespaces/inkscape"
   xmlns:sodipodi="http://sodipodi.sourceforge.net/DTD/sodipodi-0.dtd"
   xmlns="http://www.w3.org/2000/svg"
   xmlns:svg="http://www.w3.org/2000/svg">
  <defs
     id="defs115" />
  <sodipodi:namedview
     id="namedview113"
     pagecolor="#ffffff"
     bordercolor="#000000"
     borderopacity="0.25"
     inkscape:showpageshadow="2"
     inkscape:pageopacity="0.0"
     inkscape:pagecheckerboard="0"
     inkscape:deskcolor="#d1d1d1"
     inkscape:document-units="pt" />
  <g
     id="Layer1000">
    <g
       id="Layer1001">
      <g
         id="Layer1002">
        <path
           d="m -144.9193,177.3729 c 1.4006,2.4698 2.7916,5.1879 4.1692,8.1705 -0.0365,-12.2927 -0.0365,-24.5851 0,-36.8776 l -4.1612,4.161 c -0.0187,8.1819 -0.0216,16.3638 -0.008,24.5461 z"
           style="fill:#1d1a15;fill-rule:evenodd"
           id="path2" />
        <path
           d="m -160.6062,198.5176 c -5.1582,-3.6745 -11.304,-7.7632 -16.0605,-13.3617 -2.42,-3.4092 -5.3317,-8.0855 -5.8921,-15.3014 0.1374,-8.5439 5.6718,-12.1036 11.1291,-12.8078 l -0.1775,-0.0303 c -6.3436,-0.7302 -14.9303,2.1679 -15.1018,12.8364 0.5604,7.2159 3.4721,11.8922 5.8921,15.3014 4.7573,5.5993 10.9043,9.6883 16.0628,13.3634 z"
           style="fill:#1d1a15;fill-rule:evenodd"
           id="path4" />
        <path
           d="m -164.7884,267.3006 c 0.8937,0.0589 1.8042,0.1043 2.7323,0.1346 15.2101,-1.1588 23.5726,-10.1236 25.0872,-26.894 1.2602,-14.1485 -3.5314,-25.6144 -14.3751,-34.3981 v -7.6238 h -4.1502 v 7.6221 c 10.8436,8.7837 15.6353,20.2496 14.3751,34.3981 -1.467,16.2417 -9.3566,25.1623 -23.6693,26.7611 z"
           style="fill:#1d1a15;fill-rule:evenodd"
           id="path6" />
        <path
           d="m -194.6608,263.073 -0.0181,4.3622 c 0,0 1.7645,-1.9567 5.2937,-5.4958 -0.8864,-0.5012 -1.7328,-1.0363 -2.5385,-1.6055 -1.0269,1.0145 -1.9391,1.9295 -2.7371,2.7391 z"
           style="fill:#1d1a15;fill-rule:evenodd"
           id="path8" />
        <path
           d="m -164.7683,260.496 c -1.338,-0.1185 -2.7097,-0.347 -4.1,-0.686 -3.4354,-0.6738 -7.2703,-3.2006 -10.7904,-6.7345 -6.1535,-6.1776 -11.465,-16.5821 -14.83,-31.2565 l -0.0567,13.5629 c 3.005,7.7346 6.6886,13.6281 10.7365,17.6919 3.52,3.5339 7.355,6.0607 10.7903,6.7345 2.8758,0.7016 5.6736,0.9315 8.2503,0.6877 z"
           style="fill:#1d1a15;fill-rule:evenodd"
           id="path10" />
      </g>
      <path
         d="m -174.3185,220.9535 h 5.0921 l -0.002,-0.002 h -5.0902 z"
         style="fill:#1d1a15;fill-rule:evenodd"
         id="path13" />
      <path
         d="m -13.3673,251.5941 10.9105,-10.8006 -10.8006,-10.8006 0.2433,-60.6305 10.5718,-10.5718 v -14.292 h -6.8032 v 14.292 l -10.5718,10.5718 -0.2432,60.6305 10.8006,10.8006 -10.9106,10.8006 v 67.1451 c 0.8116,6.73 3.8823,10.2302 9.212,10.5001 h 6.8032 c -5.3297,-0.2699 -8.4005,-3.7701 -9.212,-10.5001 z M 39.541,343.961 h 6.8032 v -45.2219 c -2.175,5.0147 -4.443,9.4294 -6.8032,13.2465 z"
         style="fill:#131510;fill-rule:evenodd"
         id="path15" />
      <path
         d="m 186.387,250.8976 10.33,-10.2257 -10.8005,-10.8006 c -2.2842,-20.9205 -6.723,-37.6316 -13.3163,-50.1338 -5.0423,-10.3337 -10.9851,-18.4212 -17.8277,-24.2623 -10.3258,-8.8143 -21.8211,-10.5437 -37.1276,-11.0982 h -6.8032 c 15.3066,0.5545 26.8019,2.2839 37.1277,11.0982 6.8425,5.8411 12.7853,13.9286 17.8276,24.2623 6.5934,12.5022 11.0322,29.2133 13.3163,50.1338 l 10.8006,10.8006 -10.33,10.2257 c -1.0259,20.9551 -5.021,39.039 -11.9852,54.252 -6.736,16.1442 -17.1655,27.9862 -31.2891,35.5255 -4.6443,2.0523 -9.2639,3.1345 -13.8586,3.2471 l 5.8391,0.009 c 4.9125,0.025 9.8535,-1.0604 14.8227,-3.2564 14.1236,-7.5393 24.5531,-19.3813 31.2891,-35.5255 6.9641,-15.213 10.9593,-33.2969 11.9851,-54.252 z m -69.3348,78.4381 -10.4332,-10.4834 0.1009,-67.3798 10.9105,-10.8006 -10.8005,-10.8006 0.2432,-60.6305 10.5295,-10.5296 c -2.1242,-0.1919 -4.3778,-0.2066 -6.7609,-0.0422 l -10.5718,10.5718 -0.2432,60.6305 10.8006,10.8006 -10.9106,10.8006 -0.1009,67.3798 10.749,10.8006 z"
         style="fill:#131510;fill-rule:evenodd"
         id="path17" />
      <g
         id="Layer1003">
        <path
           d="m 361.459,147.1408 c 2.2927,4.2772 4.5728,8.8563 6.8372,13.7579 -0.0817,-27.4719 -0.0817,-54.9442 0,-82.4161 l -6.8216,6.8215 c -0.051,20.6122 -0.0564,41.2246 -0.0156,61.8367 z"
           style="fill:#131510;fill-rule:evenodd"
           id="path19" />
        <path
           d="m 323.9254,189.898 c -11.5282,-8.2134 -25.266,-17.3517 -35.8976,-29.8652 -5.4085,-7.6187 -11.916,-18.0698 -13.1681,-34.1961 0.3175,-19.7722 13.5689,-27.6018 26.1692,-28.7682 -14.0905,-1.3099 -32.5965,5.3586 -32.9723,28.7682 1.252,16.1263 7.7595,26.5774 13.168,34.1961 10.6317,12.5135 24.3695,21.6518 35.8977,29.8652 z"
           style="fill:#131510;fill-rule:evenodd"
           id="path21" />
        <path
           d="m 316.1358,343.7118 c 1.4939,0.0856 3.0085,0.1534 4.5443,0.2036 33.9928,-2.59 52.6816,-22.625 56.0667,-60.1044 2.8162,-31.6197 -7.8928,-57.2446 -32.1265,-76.8748 V 189.898 h -6.8031 v 17.0382 c 24.2337,19.6302 34.9427,45.2551 32.1265,76.8748 -3.3092,36.6397 -21.2471,56.6047 -53.8079,59.9008 z"
           style="fill:#131510;fill-rule:evenodd"
           id="path23" />
        <path
           d="m 247.803,336.7057 -0.03,7.2097 c 0,0 4.2463,-4.7084 12.7377,-13.1902 -1.4178,-0.8515 -2.7873,-1.7436 -4.1082,-2.6768 -3.443,3.401 -6.3088,6.3017 -8.5995,8.6573 z"
           style="fill:#131510;fill-rule:evenodd"
           id="path25" />
        <path
           d="m 315.9105,328.5079 c -3.3956,-0.2216 -6.8984,-0.7665 -10.4548,-1.6339 -7.677,-1.506 -16.2481,-7.1529 -24.1148,-15.0505 -13.752,-13.8059 -25.6224,-37.0585 -33.1427,-69.8536 l -0.0987,23.6429 c 7.1156,20.6022 16.2613,35.9941 26.4382,46.2107 7.8667,7.8976 16.4378,13.5445 24.1149,15.0505 5.9902,1.4613 11.8293,2.0073 17.2579,1.6339 z"
           style="fill:#131510;fill-rule:evenodd"
           id="path27" />
      </g>
      <g
         id="Layer1004">
        <path
           d="m 455.2943,343.8428 c 1.0411,0.095 2.0888,0.1471 3.1436,0.1471 0.7614,0 1.5194,-0.0252 2.2737,-0.0745 19.3059,-0.6752 32.9507,-13.7038 40.9342,-39.0861 L 489.147,292.3302 c 0.123,2.4027 0.1378,4.6848 0.0462,6.8494 l 5.6495,5.6497 c -7.791,24.7703 -20.9747,37.7731 -39.5484,39.0135 z"
           style="fill:#131510;fill-rule:evenodd"
           id="path30" />
        <path
           d="m 485.5221,218.609 c -0.3566,2.6813 -0.8249,5.4173 -1.4063,8.2094 l 14.1562,-14.1562 v -68.0624 l -6.8031,6.8032 v 61.2592 z"
           style="fill:#131510;fill-rule:evenodd"
           id="path32" />
        <path
           d="m 426.6462,230.6718 c 2.3834,-37.4417 14.3753,-66.5951 29.2689,-70.2572 -0.9947,-0.2075 -2.0141,-0.3339 -3.0581,-0.3793 -0.1896,-0.008 -0.3798,-0.0125 -0.5703,-0.0125 -16.3386,0 -29.893,30.5805 -32.4436,70.649 l 10.5375,10.5373 -10.8006,10.8005 -0.0366,-0.0365 c 1.4704,42.2399 15.0784,75.5161 31.811,76.712 2.0205,0.0692 3.9419,0.0283 5.7654,-0.1208 -16.2542,-2.4661 -29.3335,-35.2284 -30.7732,-76.5912 l 0.0365,0.0365 10.8006,-10.8005 z"
           style="fill:#131510;fill-rule:evenodd"
           id="path34" />
      </g>
      <path
         d="m 638.2774,344.0018 h 6.8032 v -14.0632 l -10.749,-10.8006 v -67.1366 l 10.9106,-10.8005 -10.8006,-10.8006 -0.0159,-61.079 10.5449,-10.5953 v -14.0633 h -6.8031 v 14.0633 l -10.5449,10.5953 0.0159,61.079 10.8005,10.8006 -10.9105,10.8005 v 67.1366 l 10.7489,10.8006 z m -85.1465,-109.7169 0.0545,-64.7583 10.5718,-10.5719 v -14.292 h -6.8032 v 14.292 l -10.5718,10.5719 -0.0544,64.7583 z m 3.9331,109.7169 h 6.8031 v -14.292 l -10.8005,-10.8005 v -69.8468 h -6.8032 v 69.8468 l 10.8006,10.8005 z"
         style="fill:#131510;fill-rule:evenodd"
         id="path37" />
      <path
         d="m 690.1384,230.402 z m 6.8032,0 z m 29.3048,97.8588 C 710.661,324.1491 698.3022,292.1074 696.905,251.9666 l 0.0366,0.0365 10.8005,-10.8005 -10.5375,-10.5373 c 2.3712,-37.2512 14.254,-66.2964 29.0421,-70.1974 -1.1183,-0.2951 -2.2527,-0.4516 -3.4016,-0.4516 -16.3386,0 -29.893,30.5805 -32.4436,70.649 l 10.5375,10.5373 -10.8006,10.8005 -0.0365,-0.0365 c 1.4975,43.0214 15.5854,76.7451 32.7432,76.7451 1.1486,0 2.2828,-0.1559 3.4013,-0.4509 z m 60.4058,-97.8016 c -3.962,-48.4052 -28.266,-85.6556 -57.6559,-85.6556 -1.1421,0 -2.2756,0.0627 -3.4016,0.1738 27.8456,2.7451 50.4462,38.9577 54.2543,85.4818 l 0.091,-0.0909 10.8006,10.8005 -10.4783,10.4783 c -2.0914,49.6973 -25.5025,89.2876 -54.6678,92.1623 1.1259,0.1108 2.2595,0.174 3.4018,0.174 30.7284,0 55.897,-40.7205 58.0691,-92.3363 l 10.4783,-10.4783 -10.8006,-10.8005 z"
         style="fill:#131510;fill-rule:evenodd"
         id="path39" />
      <path
         d="m 841.225,230.402 z m 6.8032,0 z m 29.3048,97.8588 c -15.5854,-4.1117 -27.9442,-36.1534 -29.3414,-76.2942 l 0.0366,0.0365 10.8006,-10.8005 -10.5376,-10.5373 c 2.3712,-37.2512 14.2541,-66.2964 29.0421,-70.1974 -1.1182,-0.2951 -2.2527,-0.4516 -3.4016,-0.4516 -16.3386,0 -29.893,30.5805 -32.4436,70.649 l 10.5375,10.5373 -10.8006,10.8005 -0.0365,-0.0365 c 1.4975,43.0214 15.5854,76.7451 32.7432,76.7451 1.1486,0 2.2828,-0.1559 3.4013,-0.4509 z m 60.4058,-97.8016 c -3.962,-48.4052 -28.266,-85.6556 -57.6559,-85.6556 -1.142,0 -2.2756,0.0627 -3.4015,0.1738 27.8455,2.7451 50.4462,38.9577 54.2542,85.4818 l 0.091,-0.0909 10.8006,10.8005 -10.4783,10.4783 c -2.0914,49.6973 -25.5024,89.2876 -54.6678,92.1623 1.1259,0.1108 2.2595,0.174 3.4018,0.174 30.7284,0 55.897,-40.7205 58.0692,-92.3363 l 10.4782,-10.4783 -10.8005,-10.8005 z"
         style="fill:#131510;fill-rule:evenodd"
         id="path41" />
      <path
         d="m 1000.4355,251.6349 10.9105,-10.8006 -10.8006,-10.8005 0.2433,-60.6306 10.5718,-10.5718 v -14.292 h -6.8032 v 14.292 l -10.5718,10.5718 -0.2432,60.6306 10.8006,10.8005 -10.9106,10.8006 V 318.78 c 0.8116,6.73 3.8823,10.2302 9.212,10.5001 h 6.8032 c -5.3297,-0.2699 -8.4005,-3.7701 -9.212,-10.5001 z m 52.9083,92.3669 h 6.8032 v -45.2219 c -2.175,5.0147 -4.443,9.4294 -6.8032,13.2466 z"
         style="fill:#131510;fill-rule:evenodd"
         id="path43" />
      <path
         d="m -162.0156,323.6414 c -10.4678,-2.0684 -19.9009,-13.6051 -27.0042,-31.2709 -4.1483,-3.3092 -7.9705,-7.7959 -11.3542,-13.2356 7.971,27.2305 20.662,44.8467 34.9571,44.8467 1.1449,0 2.2785,-0.1185 3.4013,-0.3402 z m -30.8608,-181.3153 c 7.3432,-23.7761 18.3654,-39.7332 30.8611,-42.2027 -1.1225,-0.2217 -2.2567,-0.3416 -3.4016,-0.3416 -16.5336,0 -30.9209,23.5653 -38.3417,58.3163 3.1584,-6.2731 6.8281,-11.6101 10.8822,-15.772 z m 110.022,51.0758 c -5.2654,-64.3317 -37.5659,-113.8382 -76.6259,-113.8382 -1.1404,0 -2.2745,0.0459 -3.403,0.1295 37.5211,2.7757 68.114,51.2538 73.2257,113.7087 l 0.1211,-0.121 14.354,14.3543 -13.9257,13.9258 c -2.8063,66.6828 -34.4931,119.677 -73.7728,122.5848 1.1276,0.0834 2.2609,0.1321 3.4007,0.1321 40.8388,0 74.2884,-54.1185 77.1752,-122.7169 l 13.9258,-13.9258 -14.3541,-14.3543 z"
         style="fill:#131510;fill-rule:evenodd"
         id="path45" />
    </g>
    <path
       d="m -26.6902,251.5941 10.9106,-10.8006 -10.8006,-10.8006 0.2432,-60.6305 10.5718,-10.5718 v -14.292 h -46.8524 v 14.0633 l 10.749,10.8005 v 60.8738 l -10.8006,10.8005 10.9106,10.8006 v 67.1366 l -10.749,10.8006 v 14.1865 h 95.529 v -45.2219 c -7.4858,17.259 -16.0691,27.4257 -25.75,30.5002 h -24.7495 c -5.3297,-0.2699 -8.4005,-3.7701 -9.2121,-10.5001 z"
       style="fill:#1b1918;fill-rule:evenodd"
       id="path48" />
    <path
       d="m 173.0642,250.8976 10.33,-10.2257 -10.8006,-10.8006 c -2.2841,-20.9205 -6.7229,-37.6316 -13.3163,-50.1338 -5.0422,-10.3337 -10.9851,-18.4212 -17.8276,-24.2623 -10.3258,-8.8143 -21.8211,-10.5437 -37.1277,-11.0982 H 57.4696 v 14.0633 l 10.749,10.8005 v 60.8738 l -10.8006,10.8005 10.9106,10.8006 v 67.1366 l -10.749,10.8006 v 14.1865 l 57.3877,0.0921 c 4.9124,0.025 9.8535,-1.0604 14.8226,-3.2564 14.1236,-7.5393 24.5532,-19.3813 31.2891,-35.5255 6.9642,-15.213 10.9593,-33.2969 11.9852,-54.252 z M 131.1888,170.856 c 9.2118,14.6018 14.6223,34.4109 16.2312,59.4269 l -10.6319,10.6322 10.9105,10.8006 c -0.555,21.2221 -4.3194,40.0799 -11.2932,56.573 -6.5265,13.3982 -13.665,20.3414 -21.4157,20.829 l -10.9446,0.5352 -10.749,-10.8006 0.1009,-67.3798 10.9106,-10.8006 -10.8006,-10.8006 0.2432,-60.6305 10.5718,-10.5718 c 12.5289,-0.8637 21.4844,3.1986 26.8668,12.187 z"
       style="fill:#1b1918;fill-rule:evenodd"
       id="path50" />
    <path
       d="m 279.9527,240.0358 h 20.6513 c 16.9605,14.2299 27.8175,23.7209 34.4216,34.9282 6.1628,10.4585 5.9383,20.9654 4.5426,28.9477 -4.3033,20.9461 -24.7904,28.4859 -47.4353,22.9623 -7.6771,-1.506 -16.2482,-7.1529 -24.1149,-15.0505 -13.752,-13.8059 -25.6223,-37.0585 -33.1427,-69.8536 l -0.4252,101.9455 c 0,0 5.1444,-5.7039 15.4327,-15.867 13.8402,9.7787 32.9984,15.0676 57.4744,15.867 33.9928,-2.59 52.6816,-22.625 56.0668,-60.1044 2.8162,-31.6197 -7.8928,-57.2446 -32.1265,-76.8748 V 189.898 h -20.6949 c -11.5282,-8.2134 -25.266,-17.3517 -35.8977,-29.8652 -5.4085,-7.6187 -11.916,-18.0698 -13.168,-34.1961 0.3829,-23.8427 19.5732,-30.3196 33.7501,-28.688 19.7456,3.151 40.2973,21.7763 59.6863,63.75 -0.0816,-27.4719 -0.0816,-54.9442 0,-82.4161 l -14.6336,14.6335 c -32.7568,-13.7508 -58.8724,-13.477 -78.347,0.8209 -11.8962,9.9409 -20.4687,28.0333 -21.1235,55.027 1.22,38.4492 14.8414,63.3637 39.0835,75.682 z"
       style="fill:#1b1918;fill-rule:evenodd"
       id="path52" />
    <path
       d="m 413.3234,230.6718 c 2.5506,-40.0685 16.105,-70.649 32.4436,-70.649 0.1905,0 0.3807,0.004 0.5704,0.0125 8.3537,0.364 15.1202,5.9063 20.2991,16.6269 6.8103,14.04 8.1958,30.7587 4.1565,50.1562 l 14.1562,-14.1562 v -68.0624 l -10.438,10.438 c -7.1317,-6.7498 -16.5229,-10.152 -28.1738,-10.2061 -0.4063,-0.0142 -0.8139,-0.0216 -1.2223,-0.0216 -29.3772,0 -53.6724,37.2175 -57.6505,85.5919 l -10.7734,10.7733 10.3496,10.3496 c 2.1354,51.6767 27.3203,92.465 58.0743,92.465 0.7613,0 1.5193,-0.0252 2.2736,-0.0745 19.3059,-0.6752 32.9508,-13.7038 40.9343,-39.0861 l -12.4988,-12.4991 c 1.2795,24.9877 -9.0502,37.1061 -30.9895,36.3549 -16.7326,-1.1959 -30.3406,-34.4721 -31.811,-76.712 l 0.0366,0.0365 10.8006,-10.8005 z"
       style="fill:#1b1918;fill-rule:evenodd"
       id="path54" />
    <path
       d="m 584.9053,344.0018 h 46.8525 v -14.0632 l -10.749,-10.8006 v -67.1366 l 10.9105,-10.8005 -10.8005,-10.8006 -0.0159,-61.079 10.5449,-10.5953 v -14.0633 h -46.8525 v 14.292 l 10.5718,10.5719 v 64.7583 h -55.559 l 0.0544,-64.7583 10.5718,-10.5719 v -14.292 h -46.8524 v 14.0633 l 10.749,10.8006 v 60.8737 l -10.8006,10.8006 10.9106,10.8005 v 67.1366 l -10.749,10.8006 v 14.0632 h 46.8524 v -14.292 l -10.8006,-10.8005 v -69.8468 h 55.9622 v 69.8468 l -10.8006,10.8005 z"
       style="fill:#1b1918;fill-rule:evenodd"
       id="path56" />
    <path
       d="m 748.8088,230.4026 z m -65.1901,-6e-4 z m 32.7067,-70.3857 c 16.31,0 29.8457,30.4739 32.4304,70.4393 l -10.7487,10.747 11.0616,10.7702 c -1.4989,43.0189 -15.5866,76.7389 -32.7433,76.7389 -17.1578,0 -31.2457,-33.7237 -32.7432,-76.7451 l 0.0365,0.0365 10.8006,-10.8005 -10.5375,-10.5373 c 2.5506,-40.0685 16.105,-70.649 32.4436,-70.649 z m 57.0039,70.4429 c -3.962,-48.4052 -28.2659,-85.6556 -57.6558,-85.6556 -29.3772,0 -53.6723,37.2175 -57.6505,85.5919 l -10.7733,10.7733 10.3495,10.3496 c 2.1354,51.6767 27.3204,92.465 58.0743,92.465 30.7284,0 55.8969,-40.7205 58.0691,-92.3363 l 10.4783,-10.4783 -10.8006,-10.8005 z"
       style="fill:#1b1918;fill-rule:evenodd"
       id="path58" />
    <path
       d="m 899.8954,230.4026 z m -65.19,-6e-4 z m 32.7067,-70.3857 c 16.3099,0 29.8457,30.4739 32.4303,70.4393 l -10.7487,10.747 11.0616,10.7702 c -1.4989,43.0189 -15.5865,76.7389 -32.7432,76.7389 -17.1579,0 -31.2458,-33.7237 -32.7433,-76.7451 l 0.0366,0.0365 10.8005,-10.8005 -10.5375,-10.5373 c 2.5506,-40.0685 16.105,-70.649 32.4437,-70.649 z m 57.0038,70.4429 C 920.454,182.054 896.15,144.8036 866.7601,144.8036 c -29.3771,0 -53.6723,37.2175 -57.6505,85.5919 l -10.7733,10.7733 10.3496,10.3496 c 2.1353,51.6767 27.3203,92.465 58.0742,92.465 30.7284,0 55.8969,-40.7205 58.0691,-92.3363 l 10.4783,-10.4783 -10.8006,-10.8005 z"
       style="fill:#1b1918;fill-rule:evenodd"
       id="path60" />
    <path
       d="m 987.1126,251.6349 10.9106,-10.8006 -10.8006,-10.8005 0.2432,-60.6306 10.5718,-10.5718 v -14.292 h -46.8524 v 14.0633 l 10.749,10.8005 v 60.8738 l -10.8006,10.8005 10.9106,10.8006 v 67.1366 l -10.749,10.8006 v 14.1865 h 95.529 v -45.2219 c -7.4858,17.259 -16.0691,27.4257 -25.75,30.5002 h -24.7495 c -5.3297,-0.2699 -8.4005,-3.7701 -9.2121,-10.5001 z"
       style="fill:#1b1918;fill-rule:evenodd"
       id="path62" />
    <path
       d="m -128.7654,193.3265 z m -86.639,-7e-4 z m 43.4679,-93.5441 c 21.6763,0 39.6656,40.5004 43.1006,93.6153 l -14.2852,14.283 14.7011,14.3139 c -1.9921,57.1729 -20.7149,101.9877 -43.5165,101.9877 -22.8031,0 -41.5262,-44.8197 -43.5165,-101.996 l 0.0486,0.0486 14.3542,-14.3542 -14.0046,-14.0042 c 3.3898,-53.252 21.4039,-93.8941 43.1183,-93.8941 z m 75.7594,93.6202 c -5.2656,-64.3316 -37.5661,-113.8382 -76.6259,-113.8382 -39.0428,0 -71.3316,49.4629 -76.6187,113.7534 l -14.318,14.318 13.7548,13.7549 c 2.8379,68.6794 36.3093,122.8879 77.1819,122.8879 40.8387,0 74.2883,-54.1184 77.1751,-122.7169 L -81.702,207.6351 -96.0562,193.281 Z"
       style="fill:#1b1918;fill-rule:evenodd"
       id="path64" />
    <path
       d="m -181.9721,220.9537 h 9.2406 c 7.5891,6.3672 12.4471,10.614 15.4021,15.6288 2.7576,4.6797 2.6572,9.3811 2.0326,12.9528 -1.9255,9.3725 -11.0926,12.7462 -21.2252,10.2747 -3.4351,-0.6739 -7.2703,-3.2007 -10.7903,-6.7345 -6.1534,-6.1775 -11.4649,-16.582 -14.8299,-31.2564 l -0.1903,45.6161 c 0,0 2.3019,-2.5522 6.9055,-7.0997 6.1928,4.3755 14.7653,6.742 25.7172,7.0997 15.2103,-1.1589 23.5727,-10.1237 25.0874,-26.8941 1.2602,-14.1484 -3.5316,-25.6144 -14.3751,-34.398 v -7.6239 h -9.2601 c -5.1584,-3.6751 -11.3054,-7.7641 -16.0626,-13.3634 -2.4201,-3.409 -5.3319,-8.0854 -5.8921,-15.3012 0.1713,-10.6686 8.7581,-13.5667 15.1017,-12.8366 8.8352,1.4099 18.0312,9.7439 26.707,28.5253 -0.0366,-12.2925 -0.0366,-24.5851 0,-36.8776 l -6.5479,6.5479 c -14.6573,-6.1529 -26.3429,-6.0304 -35.0569,0.3673 -5.323,4.4481 -9.1588,12.5436 -9.4518,24.6222 0.5459,17.2043 6.6408,28.3524 17.4881,33.8643 z"
       style="fill:#1b1918;fill-rule:evenodd"
       id="path66" />
    <path
       d="m 900.7209,397.948 c 0,-6.5053 -5.2733,-11.7786 -11.7786,-11.7786 -6.5055,0 -11.7788,5.2733 -11.7788,11.7786 0,6.5055 5.2733,11.7788 11.7788,11.7788 6.5053,0 11.7786,-5.2733 11.7786,-11.7788 z"
       style="fill:#1b1918;fill-rule:evenodd"
       id="path68" />
    <path
       d="m 1028.5634,397.948 c 0,-6.5053 -5.2733,-11.7786 -11.7785,-11.7786 -6.5056,0 -11.7789,5.2733 -11.7789,11.7786 0,6.5055 5.2733,11.7788 11.7789,11.7788 6.5052,0 11.7785,-5.2733 11.7785,-11.7788 z"
       style="fill:#1b1918;fill-rule:evenodd"
       id="path70" />
    <path
       d="m 640.5004,397.948 c 0,-6.5053 -5.2733,-11.7786 -11.7785,-11.7786 -6.5056,0 -11.7788,5.2733 -11.7788,11.7786 0,6.5055 5.2732,11.7788 11.7788,11.7788 6.5052,0 11.7785,-5.2733 11.7785,-11.7788 z"
       style="fill:#1b1918;fill-rule:evenodd"
       id="path72" />
    <path
       d="m 772.3114,397.948 c 0,-6.5053 -5.2733,-11.7786 -11.7785,-11.7786 -6.5055,0 -11.7788,5.2733 -11.7788,11.7786 0,6.5055 5.2733,11.7788 11.7788,11.7788 6.5052,0 11.7785,-5.2733 11.7785,-11.7788 z"
       style="fill:#1b1918;fill-rule:evenodd"
       id="path74" />
    <path
       d="m 512.9413,397.948 c 0,-6.5053 -5.2733,-11.7786 -11.7785,-11.7786 -6.5055,0 -11.7788,5.2733 -11.7788,11.7786 0,6.5055 5.2733,11.7788 11.7788,11.7788 6.5052,0 11.7785,-5.2733 11.7785,-11.7788 z"
       style="fill:#1b1918;fill-rule:evenodd"
       id="path76" />
    <path
       d="m 183.272,397.948 c 0,-6.5053 -5.2733,-11.7786 -11.7785,-11.7786 -6.5055,0 -11.7788,5.2733 -11.7788,11.7786 0,6.5055 5.2733,11.7788 11.7788,11.7788 6.5052,0 11.7785,-5.2733 11.7785,-11.7788 z"
       style="fill:#1b1918;fill-rule:evenodd"
       id="path78" />
    <path
       d="m 311.1146,397.948 c 0,-6.5053 -5.2733,-11.7786 -11.7786,-11.7786 -6.5055,0 -11.7788,5.2733 -11.7788,11.7786 0,6.5055 5.2733,11.7788 11.7788,11.7788 6.5053,0 11.7786,-5.2733 11.7786,-11.7788 z"
       style="fill:#1b1918;fill-rule:evenodd"
       id="path80" />
    <path
       d="m -76.9484,397.948 c 0,-6.5053 -5.2733,-11.7786 -11.7786,-11.7786 -6.5055,0 -11.7788,5.2733 -11.7788,11.7786 0,6.5055 5.2733,11.7788 11.7788,11.7788 6.5053,0 11.7786,-5.2733 11.7786,-11.7788 z"
       style="fill:#1b1918;fill-rule:evenodd"
       id="path82" />
    <path
       d="m 54.8626,397.948 c 0,-6.5053 -5.2733,-11.7786 -11.7785,-11.7786 -6.5055,0 -11.7788,5.2733 -11.7788,11.7786 0,6.5055 5.2733,11.7788 11.7788,11.7788 6.5052,0 11.7785,-5.2733 11.7785,-11.7788 z"
       style="fill:#1b1918;fill-rule:evenodd"
       id="path84" />
    <path
       d="m -204.5075,397.948 c 0,-6.5053 -5.2733,-11.7786 -11.7785,-11.7786 -6.5055,0 -11.7788,5.2733 -11.7788,11.7786 0,6.5055 5.2733,11.7788 11.7788,11.7788 6.5052,0 11.7785,-5.2733 11.7785,-11.7788 z"
       style="fill:#1b1918;fill-rule:evenodd"
       id="path86" />
    <g
       id="Layer1005">
      <path
         d="m 407.3586,443.6369 15.2374,-42.0962 c 1.8653,-6.9099 2.329,-13.8583 1.3911,-20.8455 l -21.6257,51.1691 z"
         style="fill:#1b1918;fill-rule:evenodd"
         id="path88" />
      <path
         d="m 415.9178,478.6145 -41.5033,-98.2022 c -0.9379,6.9872 -0.4742,13.9356 1.3911,20.8455 l 21.4335,59.2142 c 5.4384,2.0146 9.7247,8.9495 12.859,20.8047 -7.8575,6.4495 -9.0086,22.73 -2.1704,38.8398 7.6428,18.0054 22.3717,28.9796 32.8978,24.5116 10.5261,-4.4681 12.8635,-22.6865 5.2206,-40.692 -6.993,-16.4745 -19.9183,-27.0618 -30.1283,-25.3216 z m -0.651,5.7751 c 5.9437,-2.5229 16.0095,7.7942 22.4826,23.0439 6.4731,15.2497 6.9023,29.6573 0.9586,32.1803 -5.9437,2.5229 -16.0095,-7.7942 -22.4826,-23.0439 -6.4731,-15.2497 -6.9023,-29.6573 -0.9586,-32.1803 z"
         style="fill:#1b1918;fill-rule:evenodd"
         id="path90" />
      <path
         d="m 390.5578,520.1165 c 6.8402,-16.1147 5.6862,-32.4 -2.1776,-38.8456 1.6882,-6.305 3.707,-11.1993 6.056,-14.6827 l -3.3824,-7.9685 -8.4529,20.0007 c -10.2154,-1.7692 -23.1609,8.8234 -30.1616,25.3157 -7.6429,18.0055 -5.3055,36.2239 5.2206,40.692 10.5261,4.468 25.255,-6.5062 32.8979,-24.5116 z m -7.3392,-35.7269 c 5.9437,2.523 5.5145,16.9306 -0.9586,32.1803 -6.4731,15.2497 -16.5389,25.5668 -22.4826,23.0439 -5.9437,-2.523 -5.5144,-16.9306 0.9586,-32.1803 6.4731,-15.2497 16.5389,-25.5668 22.4826,-23.0439 z"
         style="fill:#1b1918;fill-rule:evenodd"
         id="path92" />
      <path
         d="m 456.0825,527.3574 15.3398,36.5642 c 0.4331,0.6233 1.5103,1.2407 2.4503,1.1083 1.3276,-0.0272 1.1555,-4.2678 0.5152,-6.0697 l -21.1552,-51.7321 c 1.8589,5.2674 2.8774,10.1906 3.0553,14.7696 0.1753,1.7949 0.0191,3.3148 -0.2054,5.3597 z"
         style="fill:#1b1918;fill-rule:evenodd"
         id="path94" />
      <path
         d="m 403.1968,513.9459 c 0,0 -0.2601,-1.6613 -0.8156,-5.2592 -1.931,-0.805 -3.9265,-0.7913 -5.9074,0.0137 0,0 -0.4085,1.6397 -1.2696,5.2214 2.8148,-0.9588 5.479,-0.9507 7.9926,0.0241 z"
         style="fill:#1b1918;fill-rule:evenodd"
         id="path96" />
      <path
         d="m 326.9436,563.9216 15.3399,-36.5642 c -0.2245,-2.0449 -0.3807,-3.5648 -0.2054,-5.3597 0.1779,-4.579 1.1963,-9.5022 3.0553,-14.7697 l -21.1553,51.7322 c -0.6403,1.8019 -0.8124,6.0425 0.5153,6.0697 0.9399,0.1324 2.0172,-0.485 2.4502,-1.1083 z"
         style="fill:#1b1918;fill-rule:evenodd"
         id="path98" />
    </g>
    <g
       id="Layer1006">
      <path
         d="M 1083.0674,336.5225 V 318.517 h 7.982 c 1.6056,0 2.8256,0.1634 3.6598,0.4863 0.8342,0.3228 1.5007,0.8929 2.0038,1.7103 0.4988,0.8218 0.7463,1.7273 0.7463,2.7166 0,1.2786 -0.4109,2.3519 -1.2409,3.228 -0.8259,0.8762 -2.1046,1.4337 -3.8317,1.6727 0.633,0.3019 1.111,0.5995 1.4379,0.8971 0.6959,0.6372 1.3541,1.438 1.9787,2.3937 l 3.1316,4.9008 h -2.9974 l -2.3812,-3.7479 c -0.6959,-1.0774 -1.2703,-1.9075 -1.7231,-2.4776 -0.4484,-0.5742 -0.851,-0.9768 -1.2073,-1.2032 -0.3562,-0.2305 -0.7169,-0.3897 -1.0857,-0.482 -0.2726,-0.0545 -0.7127,-0.0839 -1.329,-0.0839 h -2.7626 v 7.9946 z m 2.3812,-10.0571 h 5.1229 c 1.0857,0 1.9409,-0.1132 2.553,-0.3396 0.6163,-0.2264 1.0816,-0.5869 1.4002,-1.0815 0.3186,-0.4948 0.4779,-1.0314 0.4779,-1.6141 0,-0.851 -0.306,-1.5511 -0.9265,-2.1003 -0.6162,-0.5491 -1.593,-0.8217 -2.9303,-0.8217 h -5.6972 z"
         style="fill:#1b1918;fill-rule:evenodd"
         id="path101" />
      <path
         d="m 1076.0071,328.2902 c 0,-7.4627 6.0498,-13.5125 13.5123,-13.5125 7.4626,0 13.5124,6.0498 13.5124,13.5125 0,7.4625 -6.0498,13.5123 -13.5124,13.5123 -7.4625,0 -13.5123,-6.0498 -13.5123,-13.5123 z m 29.2241,10e-5 c 0,-8.6775 -7.0344,-15.7119 -15.712,-15.7119 -8.6771,0 -15.7115,7.0344 -15.7115,15.7119 0,8.6771 7.0344,15.7115 15.7115,15.7115 8.6776,0 15.712,-7.0344 15.712,-15.7115 z"
         style="fill:#1b1918;fill-rule:evenodd"
         id="path103" />
    </g>
    <path
       d="m 64.6462,493.9468 c 0,4.3687 -1.4714,7.7015 -4.4137,10.0286 -2.9577,2.3118 -7.2813,3.4679 -13.0011,3.4679 H 29.7269 v -48.1605 h 17.4144 c 4.8343,0 8.5423,0.9156 11.1095,2.7473 2.5672,1.8313 3.8431,4.7588 3.8431,8.7824 0,1.1107 -0.105,2.2519 -0.3302,3.4527 -0.2102,1.1862 -0.6156,2.282 -1.2011,3.3179 -0.5855,1.021 -1.3962,1.9366 -2.432,2.7473 -1.0207,0.8107 -2.342,1.3813 -3.9481,1.7416 2.2519,0.1951 4.0683,0.6905 5.4343,1.471 1.3512,0.7657 2.4172,1.7115 3.1679,2.8374 0.7355,1.1111 1.2458,2.3271 1.4863,3.6633 0.255,1.3359 0.3752,2.642 0.3752,3.9031 z m -31.4064,9.9835 h 13.9465 c 9.0828,0 13.6317,-3.3328 13.6317,-9.9835 0,-1.7413 -0.2252,-3.2275 -0.7058,-4.4886 -0.4652,-1.261 -1.261,-2.2969 -2.387,-3.1076 -1.1408,-0.8107 -2.6271,-1.4114 -4.4885,-1.8015 -1.8618,-0.3905 -4.2038,-0.5855 -7.0111,-0.5855 H 33.2398 Z m 0,-23.4949 h 12.9408 c 4.2786,0 7.4313,-0.6905 9.4431,-2.0718 2.0267,-1.366 3.0473,-3.6931 3.0473,-6.9358 0,-2.9424 -0.9458,-5.1191 -2.8221,-6.5305 -1.8767,-1.426 -4.8794,-2.1466 -9.0076,-2.1466 l -13.6015,0.0451 z m 63.7288,22.6091 c -1.2012,1.0511 -2.3722,1.9217 -3.513,2.6122 -1.1409,0.6908 -2.2668,1.2312 -3.363,1.6366 -1.0958,0.3901 -2.1916,0.6603 -3.2725,0.8107 -1.0961,0.15 -2.192,0.2251 -3.303,0.2251 -1.5012,0 -2.8973,-0.2404 -4.1885,-0.6908 -1.276,-0.4504 -2.4019,-1.0958 -3.3329,-1.9366 -0.9457,-0.8256 -1.6813,-1.8466 -2.2217,-3.0324 -0.5405,-1.1859 -0.8107,-2.492 -0.8107,-3.9332 0,-3.9035 1.6664,-6.9359 4.9843,-9.113 3.3328,-2.1618 8.3168,-3.2427 14.9824,-3.2427 h 4.0386 c 0,-1.5011 -0.0901,-2.8824 -0.2554,-4.1435 -0.1801,-1.2611 -0.5855,-2.342 -1.2309,-3.2725 -0.6454,-0.9309 -1.6065,-1.6515 -2.8675,-2.1771 -1.2611,-0.5252 -2.9725,-0.7954 -5.1493,-0.7954 -3.1828,0 -5.5847,0.4954 -7.1911,1.5011 -1.5913,0.9909 -2.5371,2.5073 -2.8222,4.534 H 73.969 c 0.3603,-3.2279 1.6065,-5.6298 3.7832,-7.1912 2.1771,-1.5763 5.3897,-2.3569 9.6832,-2.3569 2.3721,0 4.3839,0.2851 6.0351,0.8706 1.6664,0.6004 3.0175,1.4412 4.0534,2.5371 1.0359,1.0961 1.8015,2.432 2.2671,4.0083 0.4653,1.5615 0.7054,3.3328 0.7054,5.2996 v 22.2488 h -3.5278 z m 0,-13.1511 h -5.3145 c -5.1042,0 -8.9027,0.7358 -11.4095,2.2068 -2.5073,1.4565 -3.7683,3.558 -3.7683,6.2756 0,2.0267 0.7958,3.603 2.3721,4.7289 1.5912,1.1409 3.753,1.6962 6.5152,1.6962 1.2012,0 2.3722,-0.1801 3.4981,-0.5404 1.126,-0.3752 2.192,-0.8557 3.1828,-1.4412 1.0057,-0.5855 1.9214,-1.231 2.7473,-1.9516 0.8405,-0.7206 1.5611,-1.411 2.1768,-2.0866 z m 30.746,-13.8114 c -0.3305,-0.0603 -0.6756,-0.0901 -1.0511,-0.0901 -0.3603,0 -0.7806,0 -1.276,0 -1.0057,0 -1.9668,0.2099 -2.9126,0.6153 -0.9305,0.4206 -1.8313,0.9458 -2.6721,1.6064 -0.8557,0.6607 -1.6515,1.4111 -2.387,2.2519 -0.7206,0.8256 -1.3511,1.6813 -1.8916,2.5672 v 24.4106 h -3.513 v -34.0938 h 3.513 v 4.7141 c 1.0057,-1.171 1.9966,-2.132 2.9725,-2.8526 0.9908,-0.7355 1.9366,-1.3061 2.8675,-1.7264 0.9157,-0.4053 1.8016,-0.6755 2.6573,-0.8106 0.8405,-0.1352 1.6213,-0.1951 2.3267,-0.1951 0.2404,0 0.4504,0 0.6607,0.0149 0.2103,0.0149 0.4355,0.045 0.7057,0.0752 z m 10.5087,2.732 c 0.9008,-1.2309 1.8615,-2.2519 2.8523,-3.0626 1.0061,-0.8106 1.9969,-1.4561 3.0027,-1.9366 0.9908,-0.4802 1.9515,-0.8256 2.8973,-1.0359 0.9309,-0.195 1.8317,-0.3 2.6874,-0.3 2.1019,0 3.9782,0.4203 5.6297,1.2458 1.6363,0.8409 3.0176,2.0267 4.1286,3.5733 1.1107,1.5313 1.9664,3.3927 2.5519,5.5545 0.5855,2.1768 0.8859,4.579 0.8859,7.221 0,2.7775 -0.3603,5.2996 -1.066,7.5366 -0.7054,2.2519 -1.6664,4.1584 -2.8824,5.7496 -1.2161,1.5763 -2.642,2.8076 -4.3084,3.6633 -1.6515,0.8707 -3.4382,1.3061 -5.3447,1.3061 -1.6664,0 -3.4828,-0.3305 -5.4496,-0.9908 -1.9667,-0.6607 -3.8282,-1.8168 -5.5847,-3.453 v 3.558 h -3.5129 v -48.1605 h 3.5129 z m 0,20.4923 c 1.5764,1.6664 3.2279,3.0026 4.9393,4.0084 1.7264,0.9908 3.618,1.4862 5.7046,1.4862 3.1679,0 5.7049,-1.2458 7.6114,-3.7381 1.9069,-2.492 2.8527,-6.155 2.8527,-10.9893 0,-4.6389 -0.8859,-8.1366 -2.6874,-10.5087 -1.7867,-2.387 -4.2786,-3.5729 -7.4763,-3.5729 -2.1019,0 -4.0535,0.6305 -5.8248,1.8916 -1.7718,1.261 -3.4832,3.0324 -5.1195,5.3293 z m 47.275,9.0228 c -2.3721,0 -4.5339,-0.4053 -6.4706,-1.216 -1.9217,-0.8107 -3.5881,-1.9817 -4.9843,-3.5129 -1.3962,-1.5466 -2.4771,-3.4229 -3.2275,-5.6599 -0.7656,-2.2218 -1.1561,-4.7592 -1.1561,-7.6115 0,-2.7473 0.3752,-5.2393 1.1111,-7.4461 0.7206,-2.2221 1.7714,-4.0985 3.1225,-5.6298 1.3363,-1.5465 2.9424,-2.7175 4.7889,-3.5431 1.8466,-0.8255 3.9034,-1.2309 6.1553,-1.2309 2.3119,0 4.4138,0.4054 6.2905,1.2309 1.8763,0.8256 3.4828,1.9966 4.7889,3.5431 1.321,1.5313 2.342,3.4077 3.0477,5.6298 0.6904,2.2068 1.0507,4.7137 1.0507,7.4912 v 0.7958 h -26.8277 c 0.1653,2.3118 0.6007,4.3236 1.2763,6.0198 0.6756,1.7115 1.5462,3.1229 2.6271,4.2488 1.0958,1.126 2.342,1.9665 3.7683,2.5371 1.426,0.5553 2.9725,0.8255 4.6389,0.8255 1.171,0 2.342,-0.1351 3.513,-0.4202 1.1859,-0.2702 2.2366,-0.6905 3.1977,-1.2462 0.9458,-0.5553 1.7565,-1.2458 2.4019,-2.0717 0.6305,-0.8256 1.021,-1.7565 1.1408,-2.8073 h 3.4679 c -0.3152,1.6065 -0.8855,3.0325 -1.7114,4.2786 -0.8256,1.2462 -1.8313,2.3119 -3.0324,3.1676 -1.2012,0.871 -2.5672,1.5164 -4.0985,1.9668 -1.5164,0.4355 -3.1526,0.6606 -4.879,0.6606 z m 10.9591,-20.6724 c -0.5855,-3.9034 -1.9217,-6.816 -3.9934,-8.7526 -2.0565,-1.9366 -4.6088,-2.9122 -7.6264,-2.9122 -1.4862,0 -2.8824,0.2401 -4.1736,0.7053 -1.2908,0.4657 -2.4469,1.1863 -3.4527,2.1619 -1.021,0.961 -1.8618,2.177 -2.5522,3.648 -0.6905,1.4714 -1.1859,3.1828 -1.4714,5.1496 z m 28.4041,-11.5747 c -0.3305,-0.0603 -0.6756,-0.0901 -1.0511,-0.0901 -0.3603,0 -0.7806,0 -1.276,0 -1.0057,0 -1.9668,0.2099 -2.9125,0.6153 -0.9306,0.4206 -1.8314,0.9458 -2.6722,1.6064 -0.8557,0.6607 -1.6515,1.4111 -2.387,2.2519 -0.7206,0.8256 -1.3511,1.6813 -1.8916,2.5672 v 24.4106 h -3.513 v -34.0938 h 3.513 v 4.7141 c 1.0057,-1.171 1.9966,-2.132 2.9725,-2.8526 0.9909,-0.7355 1.9366,-1.3061 2.8676,-1.7264 0.9156,-0.4053 1.8015,-0.6755 2.6572,-0.8106 0.8405,-0.1352 1.6214,-0.1951 2.3267,-0.1951 0.2405,0 0.4504,0 0.6607,0.0149 0.2103,0.0149 0.4355,0.045 0.7057,0.0752 z m 10.5988,31.3613 h -3.5278 v -34.0938 h 3.5278 z m 4.7439,-45.5636 -6.4252,8.1821 h -3.9034 l 3.9034,-8.1821 z m 28.9896,41.1648 c -1.2012,1.0511 -2.3721,1.9217 -3.513,2.6122 -1.1408,0.6908 -2.2668,1.2312 -3.3629,1.6366 -1.0959,0.3901 -2.1917,0.6603 -3.2726,0.8107 -1.0961,0.15 -2.1919,0.2251 -3.303,0.2251 -1.5011,0 -2.8973,-0.2404 -4.1885,-0.6908 -1.276,-0.4504 -2.4019,-1.0958 -3.3328,-1.9366 -0.9458,-0.8256 -1.6813,-1.8466 -2.2218,-3.0324 -0.5404,-1.1859 -0.8107,-2.492 -0.8107,-3.9332 0,-3.9035 1.6664,-6.9359 4.9843,-9.113 3.3329,-2.1618 8.3168,-3.2427 14.9824,-3.2427 h 4.0386 c 0,-1.5011 -0.0901,-2.8824 -0.2554,-4.1435 -0.1801,-1.2611 -0.5855,-2.342 -1.2309,-3.2725 -0.6454,-0.9309 -1.6065,-1.6515 -2.8675,-2.1771 -1.2611,-0.5252 -2.9725,-0.7954 -5.1492,-0.7954 -3.1828,0 -5.5848,0.4954 -7.1912,1.5011 -1.5912,0.9909 -2.537,2.5073 -2.8222,4.534 h -3.4831 c 0.3603,-3.2279 1.6064,-5.6298 3.7831,-7.1912 2.1771,-1.5763 5.3897,-2.3569 9.6832,-2.3569 2.3721,0 4.3839,0.2851 6.0351,0.8706 1.6664,0.6004 3.0175,1.4412 4.0534,2.5371 1.0359,1.0961 1.8015,2.432 2.2672,4.0083 0.4652,1.5615 0.7053,3.3328 0.7053,5.2996 v 22.2488 h -3.5278 z m 0,-13.1511 h -5.3145 c -5.1042,0 -8.9026,0.7358 -11.4095,2.2068 -2.5072,1.4565 -3.7683,3.558 -3.7683,6.2756 0,2.0267 0.7958,3.603 2.3721,4.7289 1.5912,1.1409 3.7531,1.6962 6.5153,1.6962 1.2011,0 2.3721,-0.1801 3.498,-0.5404 1.126,-0.3752 2.192,-0.8557 3.1828,-1.4412 1.0058,-0.5855 1.9214,-1.231 2.7474,-1.9516 0.8404,-0.7206 1.561,-1.411 2.1767,-2.0866 z"
       style="fill:#1b1918;fill-rule:evenodd"
       id="path106" />
    <path
       d="m 562.8164,507.4435 h -3.558 v -23.9751 h -29.6949 v 23.9751 h -3.513 V 459.283 h 3.513 v 20.6724 h 29.6949 V 459.283 h 3.558 z m 34.259,-4.3989 c -1.2011,1.0512 -2.3721,1.9218 -3.5129,2.6122 -1.1409,0.6909 -2.2668,1.2313 -3.363,1.6367 -1.0958,0.39 -2.1916,0.6603 -3.2725,0.8106 -1.0962,0.15 -2.192,0.2252 -3.303,0.2252 -1.5012,0 -2.8974,-0.2404 -4.1886,-0.6908 -1.2759,-0.4504 -2.4019,-1.0958 -3.3328,-1.9366 -0.9458,-0.8256 -1.6813,-1.8466 -2.2217,-3.0325 -0.5405,-1.1858 -0.8107,-2.4919 -0.8107,-3.9332 0,-3.9034 1.6664,-6.9358 4.9843,-9.1129 3.3328,-2.1618 8.3168,-3.2427 14.9824,-3.2427 h 4.0385 c 0,-1.5012 -0.09,-2.8824 -0.2553,-4.1435 -0.1802,-1.2611 -0.5855,-2.342 -1.2309,-3.2725 -0.6454,-0.9309 -1.6065,-1.6515 -2.8676,-2.1771 -1.261,-0.5252 -2.9725,-0.7954 -5.1492,-0.7954 -3.1828,0 -5.5847,0.4954 -7.1912,1.5011 -1.5912,0.9908 -2.537,2.5072 -2.8221,4.5339 h -3.4832 c 0.3603,-3.2278 1.6065,-5.6297 3.7832,-7.1911 2.1771,-1.5764 5.3897,-2.3569 9.6832,-2.3569 2.3721,0 4.3839,0.2851 6.0351,0.8706 1.6664,0.6004 3.0175,1.4412 4.0534,2.537 1.0359,1.0962 1.8015,2.4321 2.2671,4.0084 0.4653,1.5614 0.7054,3.3328 0.7054,5.2996 v 22.2488 h -3.5279 z m 0,-13.1511 h -5.3145 c -5.1041,0 -8.9026,0.7359 -11.4095,2.2069 -2.5072,1.4565 -3.7682,3.558 -3.7682,6.2755 0,2.0267 0.7957,3.6031 2.3721,4.729 1.5912,1.1409 3.753,1.6962 6.5152,1.6962 1.2012,0 2.3721,-0.1801 3.4981,-0.5404 1.1259,-0.3752 2.192,-0.8558 3.1828,-1.4413 1.0057,-0.5854 1.9214,-1.2309 2.7473,-1.9515 0.8405,-0.7206 1.5611,-1.4111 2.1767,-2.0866 z m 60.0807,17.55 h -3.513 v -22.2488 c 0,-3.2576 -0.5103,-5.5996 -1.5164,-7.0408 -1.0206,-1.4412 -2.7923,-2.1618 -5.3442,-2.1618 -1.8767,0 -3.7084,0.5855 -5.4798,1.7412 -1.7714,1.1561 -3.498,2.7923 -5.1645,4.9091 v 24.8011 h -3.5278 v -22.2488 c 0,-1.6214 -0.105,-3.0175 -0.3302,-4.1885 -0.2103,-1.171 -0.5855,-2.1168 -1.111,-2.8523 -0.5405,-0.7359 -1.2309,-1.2763 -2.1019,-1.6366 -0.8557,-0.3451 -1.9214,-0.5252 -3.1825,-0.5252 -1.8465,0 -3.603,0.5855 -5.2847,1.7412 -1.6664,1.1561 -3.3477,2.7923 -5.0442,4.9091 v 24.8011 h -3.5279 v -34.0938 h 3.5279 v 5.0592 c 1.171,-1.3061 2.2671,-2.3569 3.3179,-3.1374 1.0359,-0.7809 2.0118,-1.3664 2.9424,-1.7867 0.9309,-0.4053 1.8015,-0.6755 2.6423,-0.8107 0.8256,-0.1351 1.6363,-0.195 2.387,-0.195 2.2069,0 4.0836,0.5103 5.6298,1.5313 1.5614,1.0359 2.6874,2.5969 3.3927,4.7137 0.8859,-1.2309 1.8168,-2.2519 2.7924,-3.0626 0.9908,-0.7954 1.9816,-1.4412 2.9877,-1.9064 1.0207,-0.4653 2.0416,-0.7958 3.0626,-0.9909 1.0206,-0.195 2.0267,-0.2851 2.9874,-0.2851 6.3053,0 9.458,4.1282 9.458,12.4003 z m 14.8175,-28.6293 c 0.9007,-1.2309 1.8614,-2.2519 2.8523,-3.0626 1.0061,-0.8107 1.9969,-1.4561 3.0026,-1.9366 0.9909,-0.4802 1.9515,-0.8256 2.8973,-1.0359 0.9309,-0.195 1.8317,-0.3 2.6874,-0.3 2.1019,0 3.9783,0.4202 5.6298,1.2458 1.6362,0.8408 3.0175,2.0267 4.1286,3.5733 1.1107,1.5313 1.9664,3.3927 2.5519,5.5545 0.5855,2.1767 0.8859,4.579 0.8859,7.221 0,2.7775 -0.3603,5.2996 -1.0661,7.5366 -0.7053,2.2519 -1.6664,4.1584 -2.8824,5.7496 -1.216,1.5763 -2.642,2.8076 -4.3084,3.6633 -1.6515,0.8706 -3.4381,1.3061 -5.3446,1.3061 -1.6664,0 -3.4828,-0.3305 -5.4496,-0.9908 -1.9668,-0.6607 -3.8282,-1.8168 -5.5847,-3.453 v 3.558 h -3.513 V 459.283 h 3.513 z m 0,20.4923 c 1.5763,1.6664 3.2278,3.0026 4.9393,4.0084 1.7263,0.9908 3.6179,1.4862 5.7045,1.4862 3.1679,0 5.705,-1.2458 7.6115,-3.7381 1.9068,-2.492 2.8526,-6.155 2.8526,-10.9893 0,-4.6389 -0.8859,-8.1366 -2.6874,-10.5087 -1.7866,-2.3871 -4.2786,-3.5729 -7.4763,-3.5729 -2.1019,0 -4.0534,0.6305 -5.8248,1.8916 -1.7717,1.261 -3.4832,3.0324 -5.1194,5.3293 z m 56.2975,3.558 c -0.8558,1.0359 -1.8165,1.8916 -2.8825,2.5824 -1.0809,0.6905 -2.1618,1.2458 -3.2576,1.6664 -1.0962,0.4202 -2.192,0.7355 -3.258,0.9305 -1.0657,0.1802 -2.0267,0.2855 -2.8824,0.2855 -6.9809,0 -10.4637,-4.1587 -10.4637,-12.4606 v -22.519 h 3.5129 v 22.2186 c 0,3.1977 0.6004,5.5397 1.7867,7.0111 1.1858,1.4862 3.2427,2.2217 6.1851,2.2217 2.1018,0 4.0984,-0.5855 5.9599,-1.7565 1.8618,-1.171 3.6183,-2.8374 5.2996,-5.0141 v -24.6808 h 3.5129 v 34.0938 h -3.5129 z m 30.3407,-26.7824 c -0.3306,-0.0603 -0.6756,-0.09 -1.0512,-0.09 -0.3603,0 -0.7805,0 -1.2759,0 -1.0058,0 -1.9668,0.2099 -2.9126,0.6152 -0.9305,0.4206 -1.8313,0.9458 -2.6721,1.6065 -0.8558,0.6607 -1.6515,1.4111 -2.387,2.2519 -0.7207,0.8256 -1.3512,1.6813 -1.8916,2.5672 v 24.4106 h -3.513 v -34.0938 h 3.513 v 4.7141 c 1.0057,-1.171 1.9965,-2.132 2.9725,-2.8526 0.9908,-0.7355 1.9366,-1.3061 2.8675,-1.7264 0.9157,-0.4053 1.8015,-0.6755 2.6572,-0.8107 0.8405,-0.1351 1.6214,-0.195 2.3268,-0.195 0.2404,0 0.4503,0 0.6606,0.0149 0.2103,0.0149 0.4355,0.045 0.7058,0.0752 z m 32.6674,29.3347 c 0,2.7324 -0.2851,5.0591 -0.8706,6.9808 -0.5855,1.9218 -1.4565,3.4829 -2.6122,4.684 -1.171,1.2011 -2.6275,2.0717 -4.384,2.6271 -1.7565,0.5557 -3.7981,0.8408 -6.1099,0.8408 -1.9366,0 -3.6782,-0.2103 -5.2396,-0.6305 -1.5462,-0.4355 -2.8825,-1.0359 -3.9932,-1.8317 -1.1259,-0.7954 -1.9969,-1.7714 -2.6274,-2.9423 -0.6306,-1.171 -0.9909,-2.5073 -1.0809,-4.0084 h 3.5282 c 0.15,2.0267 0.9756,3.5129 2.5069,4.4587 1.5164,0.9607 3.7831,1.4412 6.7709,1.4412 1.7565,0 3.3027,-0.2102 4.6237,-0.6454 1.3213,-0.4206 2.4171,-1.1259 3.2877,-2.087 0.8859,-0.9607 1.5466,-2.2366 2.0118,-3.8282 0.4504,-1.5763 0.6756,-3.5279 0.6756,-5.8549 v -2.1466 c -1.1408,1.3511 -2.2217,2.4168 -3.2278,3.1824 -1.0206,0.7809 -1.9966,1.3664 -2.9275,1.7718 -0.9458,0.3901 -1.8465,0.6454 -2.7023,0.7355 -0.8706,0.1049 -1.7114,0.1652 -2.537,0.1652 -2.1317,0 -4.0233,-0.4355 -5.6748,-1.2763 -1.6362,-0.8557 -3.0175,-2.0565 -4.1286,-3.5878 -1.1107,-1.5465 -1.9515,-3.3931 -2.5221,-5.5698 -0.5855,-2.1618 -0.8706,-4.579 -0.8706,-7.2511 0,-2.8225 0.3454,-5.3446 1.0359,-7.5965 0.6904,-2.2367 1.6515,-4.1435 2.8675,-5.7046 1.216,-1.5763 2.642,-2.7775 4.3084,-3.6183 1.6515,-0.8256 3.4381,-1.2458 5.3446,-1.2458 0.8107,0 1.6664,0.0599 2.5523,0.1801 0.8706,0.105 1.7863,0.3302 2.7172,0.6306 0.9458,0.3152 1.8916,0.7206 2.8675,1.261 0.9607,0.5253 1.9366,1.2008 2.8973,2.0115 v -3.2126 h 3.513 z m -3.513,-24.5007 c -1.5763,-1.6363 -3.2278,-2.8675 -4.9542,-3.6931 -1.7114,-0.8107 -3.603,-1.2309 -5.6896,-1.2309 -1.5764,0 -3.0176,0.3 -4.2939,0.9007 -1.276,0.6004 -2.3569,1.5161 -3.2725,2.7321 -0.9008,1.216 -1.6065,2.7473 -2.1019,4.579 -0.5103,1.8316 -0.7508,3.9782 -0.7508,6.4404 0,4.624 0.8859,8.1519 2.6725,10.5538 1.8015,2.4022 4.2935,3.603 7.4912,3.603 2.1019,0 4.0386,-0.5702 5.795,-1.7412 1.7565,-1.1561 3.468,-2.8676 5.1042,-5.1645 z m 27.9686,-8.437 c 2.3118,0 4.4137,0.4053 6.2904,1.2008 1.8764,0.8107 3.4828,1.9816 4.7889,3.5282 1.321,1.5313 2.342,3.4076 3.0477,5.6297 0.6905,2.2069 1.0508,4.7138 1.0508,7.4912 0,2.8523 -0.3603,5.3897 -1.0809,7.6114 -0.7206,2.2371 -1.7416,4.1134 -3.0626,5.6599 -1.3061,1.5313 -2.9126,2.7023 -4.7889,3.513 -1.8767,0.8107 -3.9634,1.216 -6.2454,1.216 -2.282,0 -4.3538,-0.4053 -6.2152,-1.2011 -1.8615,-0.7805 -3.4531,-1.9515 -4.7741,-3.4828 -1.321,-1.5466 -2.3568,-3.4229 -3.0774,-5.6599 -0.7359,-2.2218 -1.1111,-4.774 -1.1111,-7.6565 0,-2.8072 0.3603,-5.3293 1.0809,-7.5362 0.7206,-2.2221 1.7416,-4.0836 3.0626,-5.6149 1.321,-1.5164 2.9126,-2.6873 4.7889,-3.498 1.8767,-0.7955 3.9634,-1.2008 6.2454,-1.2008 z m 0,32.322 c 1.7263,0 3.3027,-0.3 4.729,-0.9007 1.4263,-0.6004 2.6423,-1.5012 3.6782,-2.7172 1.0206,-1.2309 1.8164,-2.7324 2.387,-4.534 0.5703,-1.8015 0.8557,-3.9183 0.8557,-6.3202 0,-2.3721 -0.2854,-4.4587 -0.8557,-6.2602 -0.5706,-1.8016 -1.3664,-3.3027 -2.387,-4.489 -1.0359,-1.1858 -2.2519,-2.0866 -3.6782,-2.687 -1.4263,-0.6007 -3.0027,-0.9007 -4.729,-0.9007 -1.7565,0 -3.3477,0.3 -4.774,0.9007 -1.4111,0.6004 -2.6424,1.5012 -3.663,2.687 -1.0359,1.1863 -1.8168,2.6874 -2.387,4.489 -0.5557,1.8015 -0.8259,3.8881 -0.8259,6.2602 0,2.4019 0.2702,4.5187 0.8259,6.3202 0.5702,1.8016 1.3511,3.3031 2.387,4.534 1.0206,1.216 2.2519,2.1168 3.663,2.7172 1.4263,0.6007 3.0175,0.9007 4.774,0.9007 z"
       style="fill:#1b1918;fill-rule:evenodd"
       id="path108" />
  </g>
</svg>
