<?xml version="1.0" encoding="UTF-8"?>
<svg xmlns="http://www.w3.org/2000/svg" xmlns:xlink="http://www.w3.org/1999/xlink" width="862.5pt" height="525pt" viewBox="0 0 862.5 525" version="1.1">
<g id="surface1">
<path style=" stroke:none;fill-rule:evenodd;fill:rgb(19.999695%,16.862488%,14.117432%);fill-opacity:1;" d="M 151.136719 191 C 151.832031 192.222656 152.519531 193.566406 153.203125 195.042969 C 153.183594 188.957031 153.183594 182.871094 153.203125 176.78125 L 151.140625 178.84375 C 151.132812 182.894531 151.132812 186.945312 151.136719 191 Z M 151.136719 191 "/>
<path style=" stroke:none;fill-rule:evenodd;fill:rgb(19.999695%,16.862488%,14.117432%);fill-opacity:1;" d="M 143.371094 201.46875 C 140.816406 199.648438 137.773438 197.625 135.417969 194.851562 C 134.21875 193.164062 132.777344 190.847656 132.5 187.273438 C 132.566406 183.042969 135.308594 181.28125 138.011719 180.933594 L 137.921875 180.917969 C 134.78125 180.554688 130.527344 181.992188 130.445312 187.273438 C 130.722656 190.847656 132.164062 193.164062 133.363281 194.851562 C 135.71875 197.625 138.761719 199.648438 141.316406 201.46875 Z M 143.371094 201.46875 "/>
<path style=" stroke:none;fill-rule:evenodd;fill:rgb(19.999695%,16.862488%,14.117432%);fill-opacity:1;" d="M 141.296875 235.53125 C 141.742188 235.558594 142.191406 235.582031 142.652344 235.597656 C 150.183594 235.023438 154.324219 230.582031 155.074219 222.277344 C 155.699219 215.273438 153.324219 209.59375 147.957031 205.246094 L 147.957031 201.46875 L 145.902344 201.46875 L 145.902344 205.242188 C 151.269531 209.59375 153.644531 215.269531 153.019531 222.277344 C 152.292969 230.320312 148.386719 234.738281 141.296875 235.53125 Z M 141.296875 235.53125 "/>
<path style=" stroke:none;fill-rule:evenodd;fill:rgb(19.999695%,16.862488%,14.117432%);fill-opacity:1;" d="M 126.507812 233.4375 L 126.496094 235.597656 C 126.496094 235.597656 127.371094 234.628906 129.117188 232.875 C 128.679688 232.625 128.261719 232.363281 127.863281 232.078125 C 127.351562 232.582031 126.902344 233.035156 126.507812 233.4375 Z M 126.507812 233.4375 "/>
<path style=" stroke:none;fill-rule:evenodd;fill:rgb(19.999695%,16.862488%,14.117432%);fill-opacity:1;" d="M 141.308594 232.160156 C 140.644531 232.101562 139.964844 231.988281 139.277344 231.820312 C 137.578125 231.488281 135.679688 230.234375 133.933594 228.484375 C 130.886719 225.425781 128.257812 220.273438 126.589844 213.007812 L 126.5625 219.722656 C 128.050781 223.554688 129.875 226.472656 131.878906 228.484375 C 133.621094 230.234375 135.523438 231.484375 137.222656 231.820312 C 138.648438 232.167969 140.03125 232.28125 141.308594 232.160156 Z M 141.308594 232.160156 "/>
<path style=" stroke:none;fill-rule:evenodd;fill:rgb(15.686035%,15.686035%,16.078186%);fill-opacity:1;" d="M 216.28125 227.75 L 221.683594 222.402344 L 216.335938 217.054688 L 216.457031 187.03125 L 221.691406 181.796875 L 221.691406 174.71875 L 218.320312 174.71875 L 218.320312 181.796875 L 213.085938 187.03125 L 212.964844 217.054688 L 218.316406 222.402344 L 212.914062 227.75 L 212.914062 261 C 213.3125 264.335938 214.835938 266.066406 217.472656 266.199219 L 220.84375 266.199219 C 218.203125 266.066406 216.683594 264.335938 216.28125 261 Z M 242.480469 273.492188 L 245.851562 273.492188 L 245.851562 251.097656 C 244.773438 253.582031 243.648438 255.765625 242.480469 257.65625 Z M 242.480469 273.492188 "/>
<path style=" stroke:none;fill-rule:evenodd;fill:rgb(15.686035%,15.686035%,16.078186%);fill-opacity:1;" d="M 315.199219 227.40625 L 320.3125 222.34375 L 314.964844 216.996094 C 313.832031 206.636719 311.636719 198.359375 308.371094 192.167969 C 305.875 187.050781 302.929688 183.046875 299.542969 180.15625 C 294.429688 175.789062 288.738281 174.933594 281.15625 174.660156 L 277.789062 174.660156 C 285.367188 174.933594 291.058594 175.789062 296.171875 180.15625 C 299.5625 183.046875 302.503906 187.050781 305 192.167969 C 308.265625 198.359375 310.464844 206.636719 311.597656 216.996094 L 316.945312 222.34375 L 311.828125 227.40625 C 311.320312 237.785156 309.34375 246.738281 305.894531 254.273438 C 302.558594 262.265625 297.394531 268.128906 290.398438 271.863281 C 288.101562 272.878906 285.8125 273.417969 283.535156 273.472656 L 286.429688 273.476562 C 288.859375 273.488281 291.308594 272.953125 293.769531 271.863281 C 300.761719 268.128906 305.925781 262.265625 309.261719 254.273438 C 312.710938 246.738281 314.691406 237.785156 315.199219 227.40625 Z M 280.863281 266.25 L 275.695312 261.058594 L 275.746094 227.691406 L 281.148438 222.34375 L 275.800781 216.996094 L 275.921875 186.972656 L 281.136719 181.757812 C 280.085938 181.660156 278.96875 181.65625 277.789062 181.734375 L 272.554688 186.972656 L 272.433594 216.996094 L 277.78125 222.34375 L 272.378906 227.691406 L 272.328125 261.058594 L 277.652344 266.40625 Z M 280.863281 266.25 "/>
<path style=" stroke:none;fill-rule:evenodd;fill:rgb(15.686035%,15.686035%,16.078186%);fill-opacity:1;" d="M 401.890625 176.027344 C 403.027344 178.144531 404.15625 180.414062 405.277344 182.839844 C 405.238281 169.238281 405.238281 155.632812 405.277344 142.027344 L 401.898438 145.40625 C 401.875 155.613281 401.871094 165.820312 401.890625 176.027344 Z M 401.890625 176.027344 "/>
<path style=" stroke:none;fill-rule:evenodd;fill:rgb(15.686035%,15.686035%,16.078186%);fill-opacity:1;" d="M 383.304688 197.199219 C 377.597656 193.132812 370.792969 188.609375 365.527344 182.410156 C 362.851562 178.640625 359.628906 173.464844 359.007812 165.476562 C 359.164062 155.6875 365.726562 151.808594 371.96875 151.230469 C 364.988281 150.582031 355.824219 153.886719 355.640625 165.476562 C 356.257812 173.464844 359.480469 178.640625 362.160156 182.410156 C 367.425781 188.609375 374.226562 193.132812 379.9375 197.199219 Z M 383.304688 197.199219 "/>
<path style=" stroke:none;fill-rule:evenodd;fill:rgb(15.686035%,15.686035%,16.078186%);fill-opacity:1;" d="M 379.449219 273.367188 C 380.1875 273.410156 380.9375 273.445312 381.699219 273.46875 C 398.53125 272.1875 407.785156 262.265625 409.460938 243.707031 C 410.855469 228.046875 405.554688 215.359375 393.554688 205.636719 L 393.554688 197.199219 L 390.183594 197.199219 L 390.183594 205.636719 C 402.183594 215.359375 407.488281 228.046875 406.09375 243.707031 C 404.453125 261.847656 395.570312 271.734375 379.449219 273.367188 Z M 379.449219 273.367188 "/>
<path style=" stroke:none;fill-rule:evenodd;fill:rgb(15.686035%,15.686035%,16.078186%);fill-opacity:1;" d="M 345.609375 269.898438 L 345.59375 273.46875 C 345.59375 273.46875 347.699219 271.136719 351.902344 266.9375 C 351.199219 266.515625 350.523438 266.074219 349.867188 265.613281 C 348.164062 267.296875 346.746094 268.730469 345.609375 269.898438 Z M 345.609375 269.898438 "/>
<path style=" stroke:none;fill-rule:evenodd;fill:rgb(15.686035%,15.686035%,16.078186%);fill-opacity:1;" d="M 379.335938 265.839844 C 377.65625 265.730469 375.921875 265.460938 374.160156 265.03125 C 370.359375 264.285156 366.113281 261.488281 362.21875 257.578125 C 355.40625 250.742188 349.53125 239.226562 345.804688 222.984375 L 345.757812 234.695312 C 349.28125 244.894531 353.808594 252.519531 358.847656 257.578125 C 362.746094 261.488281 366.988281 264.285156 370.789062 265.03125 C 373.757812 265.753906 376.648438 266.023438 379.335938 265.839844 Z M 379.335938 265.839844 "/>
<path style=" stroke:none;fill-rule:evenodd;fill:rgb(15.686035%,15.686035%,16.078186%);fill-opacity:1;" d="M 448.359375 273.433594 C 448.875 273.480469 449.390625 273.503906 449.914062 273.503906 C 450.292969 273.503906 450.667969 273.492188 451.039062 273.46875 C 460.601562 273.132812 467.359375 266.683594 471.3125 254.113281 L 465.121094 247.925781 C 465.183594 249.113281 465.191406 250.242188 465.144531 251.316406 L 467.941406 254.113281 C 464.085938 266.378906 457.554688 272.816406 448.359375 273.433594 Z M 448.359375 273.433594 "/>
<path style=" stroke:none;fill-rule:evenodd;fill:rgb(15.686035%,15.686035%,16.078186%);fill-opacity:1;" d="M 463.328125 211.417969 C 463.148438 212.746094 462.917969 214.101562 462.628906 215.484375 L 469.640625 208.472656 L 469.640625 174.769531 L 466.269531 178.136719 L 466.269531 208.472656 Z M 463.328125 211.417969 "/>
<path style=" stroke:none;fill-rule:evenodd;fill:rgb(15.686035%,15.686035%,16.078186%);fill-opacity:1;" d="M 434.171875 217.390625 C 435.351562 198.851562 441.289062 184.414062 448.664062 182.601562 C 448.171875 182.496094 447.667969 182.433594 447.152344 182.414062 C 447.058594 182.410156 446.964844 182.40625 446.867188 182.40625 C 438.777344 182.40625 432.066406 197.550781 430.804688 217.390625 L 436.019531 222.609375 L 430.671875 227.957031 L 430.65625 227.941406 C 431.382812 248.855469 438.121094 265.335938 446.40625 265.925781 C 447.40625 265.960938 448.359375 265.941406 449.261719 265.867188 C 441.214844 264.644531 434.738281 248.421875 434.023438 227.941406 L 434.042969 227.957031 L 439.390625 222.609375 Z M 434.171875 217.390625 "/>
<path style=" stroke:none;fill-rule:evenodd;fill:rgb(15.686035%,15.686035%,16.078186%);fill-opacity:1;" d="M 538.96875 273.511719 L 542.339844 273.511719 L 542.339844 266.546875 L 537.015625 261.199219 L 537.015625 227.953125 L 542.417969 222.605469 L 537.070312 217.257812 L 537.0625 187.011719 L 542.285156 181.765625 L 542.285156 174.800781 L 538.914062 174.800781 L 538.914062 181.765625 L 533.695312 187.011719 L 533.703125 217.257812 L 539.050781 222.605469 L 533.648438 227.953125 L 533.648438 261.199219 L 538.96875 266.546875 Z M 496.804688 219.179688 L 496.832031 187.113281 L 502.066406 181.878906 L 502.066406 174.800781 L 498.699219 174.800781 L 498.699219 181.878906 L 493.464844 187.113281 L 493.4375 219.179688 Z M 498.753906 273.511719 L 502.121094 273.511719 L 502.121094 266.433594 L 496.773438 261.085938 L 496.773438 226.5 L 493.40625 226.5 L 493.40625 261.085938 L 498.753906 266.433594 Z M 498.753906 273.511719 "/>
<path style=" stroke:none;fill-rule:evenodd;fill:rgb(15.686035%,15.686035%,16.078186%);fill-opacity:1;" d="M 582.53125 265.714844 C 574.8125 263.679688 568.695312 247.8125 568 227.9375 L 568.019531 227.953125 L 573.367188 222.605469 L 568.148438 217.386719 C 569.324219 198.941406 575.207031 184.558594 582.53125 182.625 C 581.976562 182.480469 581.414062 182.402344 580.847656 182.402344 C 572.757812 182.402344 566.042969 197.546875 564.78125 217.386719 L 570 222.605469 L 564.652344 227.953125 L 564.632812 227.9375 C 565.375 249.238281 572.351562 265.941406 580.847656 265.941406 C 581.414062 265.941406 581.976562 265.863281 582.53125 265.714844 Z M 612.445312 217.285156 C 610.480469 193.316406 598.445312 174.871094 583.894531 174.871094 C 583.328125 174.871094 582.765625 174.902344 582.207031 174.957031 C 595.996094 176.316406 607.1875 194.246094 609.074219 217.285156 L 609.121094 217.242188 L 614.46875 222.589844 L 609.28125 227.777344 C 608.242188 252.386719 596.652344 271.992188 582.207031 273.417969 C 582.765625 273.472656 583.328125 273.503906 583.894531 273.503906 C 599.109375 273.503906 611.574219 253.335938 612.648438 227.777344 L 617.835938 222.589844 L 612.488281 217.242188 Z M 612.445312 217.285156 "/>
<path style=" stroke:none;fill-rule:evenodd;fill:rgb(15.686035%,15.686035%,16.078186%);fill-opacity:1;" d="M 657.347656 265.714844 C 649.628906 263.679688 643.511719 247.8125 642.820312 227.9375 L 642.835938 227.953125 L 648.183594 222.605469 L 642.964844 217.386719 C 644.140625 198.941406 650.023438 184.558594 657.347656 182.625 C 656.792969 182.480469 656.234375 182.402344 655.664062 182.402344 C 647.574219 182.402344 640.859375 197.546875 639.597656 217.386719 L 644.816406 222.605469 L 639.46875 227.953125 L 639.449219 227.9375 C 640.191406 249.238281 647.167969 265.941406 655.664062 265.941406 C 656.234375 265.941406 656.792969 265.863281 657.347656 265.714844 Z M 687.261719 217.285156 C 685.296875 193.316406 673.261719 174.871094 658.710938 174.871094 C 658.144531 174.871094 657.582031 174.902344 657.023438 174.957031 C 670.8125 176.316406 682.003906 194.246094 683.890625 217.285156 L 683.9375 217.242188 L 689.285156 222.589844 L 684.097656 227.777344 C 683.0625 252.386719 671.46875 271.992188 657.023438 273.417969 C 657.582031 273.472656 658.144531 273.503906 658.710938 273.503906 C 673.925781 273.503906 686.390625 253.335938 687.464844 227.777344 L 692.652344 222.589844 L 687.304688 217.242188 Z M 687.261719 217.285156 "/>
<path style=" stroke:none;fill-rule:evenodd;fill:rgb(15.686035%,15.686035%,16.078186%);fill-opacity:1;" d="M 718.308594 227.773438 L 723.710938 222.421875 L 718.363281 217.074219 L 718.480469 187.050781 L 723.71875 181.816406 L 723.71875 174.738281 L 720.347656 174.738281 L 720.347656 181.816406 L 715.113281 187.050781 L 714.992188 217.074219 L 720.339844 222.421875 L 714.9375 227.773438 L 714.9375 261.023438 C 715.339844 264.355469 716.859375 266.085938 719.5 266.222656 L 722.867188 266.222656 C 720.230469 266.085938 718.710938 264.355469 718.308594 261.023438 Z M 744.507812 273.511719 L 747.875 273.511719 L 747.875 251.117188 C 746.800781 253.601562 745.675781 255.789062 744.507812 257.675781 Z M 744.507812 273.511719 "/>
<path style=" stroke:none;fill-rule:evenodd;fill:rgb(15.686035%,15.686035%,16.078186%);fill-opacity:1;" d="M 142.671875 263.429688 C 137.488281 262.40625 132.816406 256.691406 129.300781 247.945312 C 127.246094 246.304688 125.351562 244.082031 123.675781 241.390625 C 127.625 254.875 133.910156 263.597656 140.988281 263.597656 C 141.554688 263.597656 142.117188 263.539062 142.671875 263.429688 Z M 127.390625 173.644531 C 131.027344 161.871094 136.484375 153.96875 142.671875 152.746094 C 142.117188 152.636719 141.554688 152.574219 140.988281 152.574219 C 132.800781 152.574219 125.675781 164.246094 122 181.453125 C 123.566406 178.347656 125.382812 175.703125 127.390625 173.644531 Z M 181.871094 198.9375 C 179.265625 167.078125 163.269531 142.5625 143.925781 142.5625 C 143.363281 142.5625 142.800781 142.585938 142.242188 142.628906 C 160.820312 144.003906 175.972656 168.007812 178.503906 198.9375 L 178.5625 198.875 L 185.671875 205.984375 L 178.773438 212.878906 C 177.386719 245.902344 161.695312 272.144531 142.242188 273.582031 C 142.800781 273.625 143.363281 273.648438 143.925781 273.648438 C 164.148438 273.648438 180.714844 246.847656 182.144531 212.878906 L 189.039062 205.984375 L 181.929688 198.875 Z M 181.871094 198.9375 "/>
<path style=" stroke:none;fill-rule:evenodd;fill:rgb(21.568298%,20.391846%,20.783997%);fill-opacity:1;" d="M 209.683594 227.75 L 215.085938 222.402344 L 209.738281 217.054688 L 209.859375 187.03125 L 215.09375 181.796875 L 215.09375 174.71875 L 191.894531 174.71875 L 191.894531 181.683594 L 197.214844 187.03125 L 197.214844 217.175781 L 191.867188 222.523438 L 197.269531 227.871094 L 197.269531 261.117188 L 191.945312 266.464844 L 191.945312 273.492188 L 239.253906 273.492188 L 239.253906 251.097656 C 235.546875 259.644531 231.296875 264.679688 226.5 266.199219 L 214.246094 266.199219 C 211.605469 266.066406 210.085938 264.335938 209.683594 261 Z M 209.683594 227.75 "/>
<path style=" stroke:none;fill-rule:evenodd;fill:rgb(21.568298%,20.391846%,20.783997%);fill-opacity:1;" d="M 308.601562 227.40625 L 313.714844 222.34375 L 308.367188 216.996094 C 307.234375 206.636719 305.039062 198.359375 301.773438 192.167969 C 299.277344 187.050781 296.332031 183.046875 292.945312 180.15625 C 287.832031 175.789062 282.140625 174.933594 274.558594 174.660156 L 251.359375 174.660156 L 251.359375 181.621094 L 256.679688 186.972656 L 256.679688 217.117188 L 251.332031 222.464844 L 256.734375 227.8125 L 256.734375 261.058594 L 251.414062 266.40625 L 251.414062 273.429688 L 279.832031 273.476562 C 282.265625 273.488281 284.710938 272.953125 287.171875 271.863281 C 294.164062 268.128906 299.328125 262.265625 302.664062 254.273438 C 306.113281 246.738281 308.09375 237.785156 308.601562 227.40625 Z M 287.863281 187.769531 C 292.425781 195 295.105469 204.8125 295.902344 217.199219 L 290.636719 222.464844 L 296.039062 227.8125 C 295.765625 238.320312 293.902344 247.660156 290.445312 255.828125 C 287.214844 262.460938 283.679688 265.898438 279.84375 266.140625 L 274.421875 266.40625 L 269.101562 261.058594 L 269.148438 227.691406 L 274.550781 222.34375 L 269.203125 216.996094 L 269.324219 186.972656 L 274.558594 181.734375 C 280.765625 181.308594 285.199219 183.320312 287.863281 187.769531 Z M 287.863281 187.769531 "/>
<path style=" stroke:none;fill-rule:evenodd;fill:rgb(21.568298%,20.391846%,20.783997%);fill-opacity:1;" d="M 361.53125 222.027344 L 371.757812 222.027344 C 380.15625 229.074219 385.53125 233.773438 388.800781 239.324219 C 391.855469 244.503906 391.742188 249.707031 391.050781 253.660156 C 388.921875 264.03125 378.777344 267.765625 367.5625 265.03125 C 363.761719 264.285156 359.515625 261.488281 355.621094 257.578125 C 348.8125 250.742188 342.933594 239.226562 339.207031 222.984375 L 339 273.46875 C 339 273.46875 341.546875 270.644531 346.640625 265.613281 C 353.492188 270.453125 362.980469 273.074219 375.101562 273.46875 C 391.933594 272.1875 401.1875 262.265625 402.863281 243.707031 C 404.257812 228.046875 398.957031 215.359375 386.957031 205.636719 L 386.957031 197.199219 L 376.707031 197.199219 C 371 193.132812 364.195312 188.609375 358.933594 182.410156 C 356.253906 178.640625 353.03125 173.464844 352.410156 165.476562 C 352.601562 153.671875 362.105469 150.464844 369.125 151.273438 C 378.902344 152.832031 389.078125 162.054688 398.679688 182.839844 C 398.640625 169.238281 398.640625 155.632812 398.679688 142.027344 L 391.433594 149.273438 C 375.210938 142.464844 362.28125 142.601562 352.636719 149.679688 C 346.746094 154.605469 342.5 163.5625 342.175781 176.929688 C 342.78125 195.96875 349.527344 208.308594 361.53125 214.40625 Z M 361.53125 222.027344 "/>
<path style=" stroke:none;fill-rule:evenodd;fill:rgb(21.568298%,20.391846%,20.783997%);fill-opacity:1;" d="M 427.574219 217.390625 C 428.835938 197.550781 435.550781 182.40625 443.640625 182.40625 C 443.734375 182.40625 443.828125 182.410156 443.921875 182.414062 C 448.058594 182.59375 451.410156 185.335938 453.976562 190.644531 C 457.347656 197.597656 458.035156 205.878906 456.03125 215.484375 L 463.042969 208.472656 L 463.042969 174.769531 L 457.875 179.9375 C 454.34375 176.59375 449.691406 174.910156 443.921875 174.882812 C 443.722656 174.878906 443.519531 174.875 443.316406 174.875 C 428.769531 174.875 416.738281 193.304688 414.769531 217.257812 L 409.433594 222.59375 L 414.558594 227.71875 C 415.617188 253.308594 428.089844 273.503906 443.316406 273.503906 C 443.695312 273.503906 444.070312 273.492188 444.445312 273.46875 C 454.003906 273.132812 460.761719 266.683594 464.714844 254.113281 L 458.523438 247.925781 C 459.15625 260.296875 454.042969 266.296875 443.179688 265.925781 C 434.894531 265.335938 428.152344 248.855469 427.425781 227.941406 L 427.445312 227.957031 L 432.792969 222.609375 Z M 427.574219 217.390625 "/>
<path style=" stroke:none;fill-rule:evenodd;fill:rgb(21.568298%,20.391846%,20.783997%);fill-opacity:1;" d="M 477.59375 217.257812 L 472.246094 222.605469 L 477.648438 227.953125 L 477.648438 261.199219 L 472.324219 266.546875 L 472.324219 273.511719 L 495.523438 273.511719 L 495.523438 266.433594 L 490.175781 261.085938 L 490.175781 226.5 L 517.890625 226.5 L 517.890625 261.085938 L 512.539062 266.433594 L 512.539062 273.511719 L 535.742188 273.511719 L 535.742188 266.546875 L 530.417969 261.199219 L 530.417969 227.953125 L 535.820312 222.605469 L 530.472656 217.257812 L 530.464844 187.011719 L 535.6875 181.765625 L 535.6875 174.800781 L 512.484375 174.800781 L 512.484375 181.878906 L 517.722656 187.113281 L 517.722656 219.179688 L 490.207031 219.179688 L 490.234375 187.113281 L 495.46875 181.878906 L 495.46875 174.800781 L 472.269531 174.800781 L 472.269531 181.765625 L 477.59375 187.113281 Z M 477.59375 217.257812 "/>
<path style=" stroke:none;fill-rule:evenodd;fill:rgb(21.568298%,20.391846%,20.783997%);fill-opacity:1;" d="M 577.617188 182.402344 C 585.695312 182.402344 592.398438 197.492188 593.675781 217.285156 L 588.355469 222.605469 L 593.832031 227.9375 C 593.089844 249.242188 586.113281 265.941406 577.617188 265.941406 C 569.121094 265.941406 562.144531 249.238281 561.402344 227.9375 L 561.421875 227.953125 L 566.769531 222.605469 L 561.550781 217.386719 C 562.816406 197.546875 569.527344 182.402344 577.617188 182.402344 Z M 605.847656 217.285156 C 603.882812 193.316406 591.847656 174.871094 577.296875 174.871094 C 562.75 174.871094 550.71875 193.300781 548.746094 217.253906 L 543.414062 222.589844 L 548.539062 227.714844 C 549.59375 253.304688 562.066406 273.503906 577.296875 273.503906 C 592.511719 273.503906 604.976562 253.335938 606.050781 227.777344 L 611.238281 222.589844 L 605.890625 217.242188 Z M 605.847656 217.285156 "/>
<path style=" stroke:none;fill-rule:evenodd;fill:rgb(21.568298%,20.391846%,20.783997%);fill-opacity:1;" d="M 652.433594 182.402344 C 660.511719 182.402344 667.214844 197.492188 668.496094 217.285156 L 663.171875 222.605469 L 668.648438 227.9375 C 667.90625 249.242188 660.929688 265.941406 652.433594 265.941406 C 643.9375 265.941406 636.960938 249.238281 636.222656 227.9375 L 636.238281 227.953125 L 641.585938 222.605469 L 636.371094 217.386719 C 637.632812 197.546875 644.34375 182.402344 652.433594 182.402344 Z M 680.664062 217.285156 C 678.699219 193.316406 666.664062 174.871094 652.113281 174.871094 C 637.566406 174.871094 625.535156 193.300781 623.5625 217.253906 L 618.230469 222.589844 L 623.355469 227.714844 C 624.410156 253.304688 636.882812 273.503906 652.113281 273.503906 C 667.328125 273.503906 679.792969 253.335938 680.867188 227.777344 L 686.054688 222.589844 L 680.707031 217.242188 Z M 680.664062 217.285156 "/>
<path style=" stroke:none;fill-rule:evenodd;fill:rgb(21.568298%,20.391846%,20.783997%);fill-opacity:1;" d="M 711.710938 227.773438 L 717.113281 222.421875 L 711.765625 217.074219 L 711.886719 187.050781 L 717.121094 181.816406 L 717.121094 174.738281 L 693.917969 174.738281 L 693.917969 181.703125 L 699.242188 187.050781 L 699.242188 217.195312 L 693.894531 222.542969 L 699.296875 227.890625 L 699.296875 261.136719 L 693.972656 266.484375 L 693.972656 273.511719 L 741.277344 273.511719 L 741.277344 251.117188 C 737.570312 259.664062 733.320312 264.699219 728.527344 266.222656 L 716.273438 266.222656 C 713.632812 266.085938 712.113281 264.355469 711.710938 261.023438 Z M 711.710938 227.773438 "/>
<path style=" stroke:none;fill-rule:evenodd;fill:rgb(21.568298%,20.391846%,20.783997%);fill-opacity:1;" d="M 137.757812 152.574219 C 148.492188 152.574219 157.402344 172.632812 159.101562 198.933594 L 152.027344 206.007812 L 159.308594 213.09375 C 158.320312 241.40625 149.050781 263.597656 137.757812 263.597656 C 126.46875 263.597656 117.195312 241.402344 116.210938 213.089844 L 116.234375 213.113281 L 123.34375 206.007812 L 116.40625 199.070312 C 118.085938 172.703125 127.007812 152.574219 137.757812 152.574219 Z M 175.273438 198.9375 C 172.667969 167.078125 156.671875 142.5625 137.328125 142.5625 C 117.996094 142.5625 102.007812 167.058594 99.390625 198.894531 L 92.296875 205.984375 L 99.109375 212.796875 C 100.515625 246.804688 117.089844 273.648438 137.328125 273.648438 C 157.554688 273.648438 174.117188 246.847656 175.546875 212.878906 L 182.441406 205.984375 L 175.335938 198.875 Z M 175.273438 198.9375 "/>
<path style=" stroke:none;fill-rule:evenodd;fill:rgb(21.568298%,20.391846%,20.783997%);fill-opacity:1;" d="M 132.789062 212.578125 L 137.363281 212.578125 C 141.125 215.730469 143.527344 217.835938 144.992188 220.316406 C 146.359375 222.636719 146.308594 224.964844 146 226.730469 C 145.046875 231.375 140.503906 233.042969 135.488281 231.820312 C 133.789062 231.488281 131.886719 230.234375 130.144531 228.484375 C 127.097656 225.425781 124.46875 220.273438 122.800781 213.007812 L 122.707031 235.597656 C 122.707031 235.597656 123.847656 234.332031 126.125 232.082031 C 129.191406 234.246094 133.4375 235.417969 138.863281 235.597656 C 146.394531 235.023438 150.535156 230.582031 151.285156 222.277344 C 151.910156 215.273438 149.535156 209.59375 144.167969 205.246094 L 144.167969 201.46875 L 139.582031 201.46875 C 137.027344 199.648438 133.980469 197.625 131.625 194.851562 C 130.429688 193.164062 128.988281 190.847656 128.707031 187.273438 C 128.792969 181.992188 133.046875 180.558594 136.1875 180.917969 C 140.5625 181.617188 145.117188 185.742188 149.414062 195.042969 C 149.394531 188.957031 149.394531 182.871094 149.414062 176.78125 L 146.167969 180.023438 C 138.910156 176.976562 133.125 177.039062 128.808594 180.207031 C 126.175781 182.410156 124.273438 186.417969 124.128906 192.398438 C 124.398438 200.917969 127.417969 206.441406 132.789062 209.167969 Z M 132.789062 212.578125 "/>
<path style=" stroke:none;fill-rule:evenodd;fill:rgb(21.568298%,20.391846%,20.783997%);fill-opacity:1;" d="M 668.929688 300.226562 C 668.929688 297.003906 666.316406 294.390625 663.097656 294.390625 C 659.875 294.390625 657.265625 297.003906 657.265625 300.226562 C 657.265625 303.445312 659.875 306.058594 663.097656 306.058594 C 666.316406 306.058594 668.929688 303.445312 668.929688 300.226562 Z M 668.929688 300.226562 "/>
<path style=" stroke:none;fill-rule:evenodd;fill:rgb(21.568298%,20.391846%,20.783997%);fill-opacity:1;" d="M 732.234375 300.226562 C 732.234375 297.003906 729.625 294.390625 726.402344 294.390625 C 723.183594 294.390625 720.570312 297.003906 720.570312 300.226562 C 720.570312 303.445312 723.183594 306.058594 726.402344 306.058594 C 729.625 306.058594 732.234375 303.445312 732.234375 300.226562 Z M 732.234375 300.226562 "/>
<path style=" stroke:none;fill-rule:evenodd;fill:rgb(21.568298%,20.391846%,20.783997%);fill-opacity:1;" d="M 540.070312 300.226562 C 540.070312 297.003906 537.460938 294.390625 534.238281 294.390625 C 531.015625 294.390625 528.40625 297.003906 528.40625 300.226562 C 528.40625 303.445312 531.015625 306.058594 534.238281 306.058594 C 537.460938 306.058594 540.070312 303.445312 540.070312 300.226562 Z M 540.070312 300.226562 "/>
<path style=" stroke:none;fill-rule:evenodd;fill:rgb(21.568298%,20.391846%,20.783997%);fill-opacity:1;" d="M 605.34375 300.226562 C 605.34375 297.003906 602.730469 294.390625 599.507812 294.390625 C 596.289062 294.390625 593.675781 297.003906 593.675781 300.226562 C 593.675781 303.445312 596.289062 306.058594 599.507812 306.058594 C 602.730469 306.058594 605.34375 303.445312 605.34375 300.226562 Z M 605.34375 300.226562 "/>
<path style=" stroke:none;fill-rule:evenodd;fill:rgb(21.568298%,20.391846%,20.783997%);fill-opacity:1;" d="M 476.90625 300.226562 C 476.90625 297.003906 474.292969 294.390625 471.070312 294.390625 C 467.851562 294.390625 465.238281 297.003906 465.238281 300.226562 C 465.238281 303.445312 467.851562 306.058594 471.070312 306.058594 C 474.292969 306.058594 476.90625 303.445312 476.90625 300.226562 Z M 476.90625 300.226562 "/>
<path style=" stroke:none;fill-rule:evenodd;fill:rgb(21.568298%,20.391846%,20.783997%);fill-opacity:1;" d="M 313.65625 300.226562 C 313.65625 297.003906 311.042969 294.390625 307.824219 294.390625 C 304.601562 294.390625 301.988281 297.003906 301.988281 300.226562 C 301.988281 303.445312 304.601562 306.058594 307.824219 306.058594 C 311.042969 306.058594 313.65625 303.445312 313.65625 300.226562 Z M 313.65625 300.226562 "/>
<path style=" stroke:none;fill-rule:evenodd;fill:rgb(21.568298%,20.391846%,20.783997%);fill-opacity:1;" d="M 376.960938 300.226562 C 376.960938 297.003906 374.351562 294.390625 371.128906 294.390625 C 367.90625 294.390625 365.296875 297.003906 365.296875 300.226562 C 365.296875 303.445312 367.90625 306.058594 371.128906 306.058594 C 374.351562 306.058594 376.960938 303.445312 376.960938 300.226562 Z M 376.960938 300.226562 "/>
<path style=" stroke:none;fill-rule:evenodd;fill:rgb(21.568298%,20.391846%,20.783997%);fill-opacity:1;" d="M 184.796875 300.226562 C 184.796875 297.003906 182.183594 294.390625 178.964844 294.390625 C 175.742188 294.390625 173.128906 297.003906 173.128906 300.226562 C 173.128906 303.445312 175.742188 306.058594 178.964844 306.058594 C 182.183594 306.058594 184.796875 303.445312 184.796875 300.226562 Z M 184.796875 300.226562 "/>
<path style=" stroke:none;fill-rule:evenodd;fill:rgb(21.568298%,20.391846%,20.783997%);fill-opacity:1;" d="M 250.066406 300.226562 C 250.066406 297.003906 247.457031 294.390625 244.234375 294.390625 C 241.015625 294.390625 238.402344 297.003906 238.402344 300.226562 C 238.402344 303.445312 241.015625 306.058594 244.234375 306.058594 C 247.457031 306.058594 250.066406 303.445312 250.066406 300.226562 Z M 250.066406 300.226562 "/>
<path style=" stroke:none;fill-rule:evenodd;fill:rgb(21.568298%,20.391846%,20.783997%);fill-opacity:1;" d="M 121.628906 300.226562 C 121.628906 297.003906 119.019531 294.390625 115.796875 294.390625 C 112.574219 294.390625 109.964844 297.003906 109.964844 300.226562 C 109.964844 303.445312 112.574219 306.058594 115.796875 306.058594 C 119.019531 306.058594 121.628906 303.445312 121.628906 300.226562 Z M 121.628906 300.226562 "/>
<path style=" stroke:none;fill-rule:evenodd;fill:rgb(21.568298%,20.391846%,20.783997%);fill-opacity:1;" d="M 424.621094 322.851562 L 432.167969 302.003906 C 433.089844 298.582031 433.320312 295.140625 432.855469 291.679688 L 422.144531 317.019531 Z M 424.621094 322.851562 "/>
<path style=" stroke:none;fill-rule:evenodd;fill:rgb(21.568298%,20.391846%,20.783997%);fill-opacity:1;" d="M 428.859375 340.171875 L 408.308594 291.542969 C 407.84375 295 408.074219 298.441406 408.996094 301.863281 L 419.609375 331.1875 C 422.304688 332.183594 424.425781 335.617188 425.976562 341.488281 C 422.085938 344.683594 421.515625 352.746094 424.902344 360.722656 C 428.6875 369.636719 435.980469 375.070312 441.195312 372.859375 C 446.40625 370.648438 447.5625 361.625 443.777344 352.710938 C 440.316406 344.550781 433.914062 339.308594 428.859375 340.171875 Z M 428.535156 343.03125 C 431.480469 341.78125 436.464844 346.890625 439.671875 354.441406 C 442.875 361.992188 443.089844 369.128906 440.144531 370.375 C 437.203125 371.625 432.21875 366.515625 429.011719 358.964844 C 425.804688 351.414062 425.59375 344.28125 428.535156 343.03125 Z M 428.535156 343.03125 "/>
<path style=" stroke:none;fill-rule:evenodd;fill:rgb(21.568298%,20.391846%,20.783997%);fill-opacity:1;" d="M 416.300781 360.722656 C 419.6875 352.742188 419.117188 344.675781 415.222656 341.484375 C 416.058594 338.363281 417.058594 335.941406 418.222656 334.214844 L 416.546875 330.269531 L 412.359375 340.171875 C 407.300781 339.296875 400.890625 344.542969 397.425781 352.710938 C 393.640625 361.625 394.796875 370.648438 400.011719 372.859375 C 405.222656 375.070312 412.515625 369.636719 416.300781 360.722656 Z M 412.667969 343.03125 C 415.609375 344.28125 415.398438 351.414062 412.191406 358.964844 C 408.988281 366.515625 404.003906 371.625 401.058594 370.375 C 398.117188 369.128906 398.328125 361.992188 401.535156 354.441406 C 404.738281 346.890625 409.722656 341.78125 412.667969 343.03125 Z M 412.667969 343.03125 "/>
<path style=" stroke:none;fill-rule:evenodd;fill:rgb(21.568298%,20.391846%,20.783997%);fill-opacity:1;" d="M 448.75 364.308594 L 456.34375 382.414062 C 456.558594 382.722656 457.09375 383.027344 457.558594 382.960938 C 458.214844 382.949219 458.128906 380.847656 457.8125 379.957031 L 447.335938 354.339844 C 448.257812 356.949219 448.761719 359.386719 448.851562 361.652344 C 448.9375 362.542969 448.859375 363.292969 448.75 364.308594 Z M 448.75 364.308594 "/>
<path style=" stroke:none;fill-rule:evenodd;fill:rgb(21.568298%,20.391846%,20.783997%);fill-opacity:1;" d="M 422.558594 357.667969 C 422.558594 357.667969 422.429688 356.84375 422.15625 355.0625 C 421.199219 354.664062 420.210938 354.671875 419.230469 355.070312 C 419.230469 355.070312 419.027344 355.878906 418.601562 357.652344 C 419.996094 357.179688 421.316406 357.183594 422.558594 357.667969 Z M 422.558594 357.667969 "/>
<path style=" stroke:none;fill-rule:evenodd;fill:rgb(21.568298%,20.391846%,20.783997%);fill-opacity:1;" d="M 384.800781 382.414062 L 392.394531 364.308594 C 392.285156 363.292969 392.207031 362.542969 392.292969 361.652344 C 392.382812 359.386719 392.886719 356.949219 393.808594 354.339844 L 383.332031 379.957031 C 383.015625 380.847656 382.929688 382.949219 383.585938 382.960938 C 384.050781 383.027344 384.585938 382.722656 384.800781 382.414062 Z M 384.800781 382.414062 "/>
<path style=" stroke:none;fill-rule:nonzero;fill:rgb(21.568298%,20.391846%,20.783997%);fill-opacity:1;" d="M 759.226562 269.808594 L 759.226562 260.890625 L 763.179688 260.890625 C 763.972656 260.890625 764.578125 260.972656 764.992188 261.132812 C 765.402344 261.292969 765.734375 261.574219 765.984375 261.980469 C 766.230469 262.386719 766.351562 262.835938 766.351562 263.324219 C 766.351562 263.957031 766.148438 264.488281 765.738281 264.921875 C 765.328125 265.355469 764.695312 265.632812 763.839844 265.75 C 764.152344 265.902344 764.390625 266.046875 764.550781 266.195312 C 764.898438 266.511719 765.222656 266.90625 765.53125 267.382812 L 767.082031 269.808594 L 765.597656 269.808594 L 764.421875 267.953125 C 764.074219 267.417969 763.789062 267.007812 763.566406 266.726562 C 763.34375 266.441406 763.144531 266.242188 762.96875 266.128906 C 762.792969 266.015625 762.613281 265.9375 762.429688 265.890625 C 762.296875 265.863281 762.078125 265.847656 761.773438 265.847656 L 760.40625 265.847656 L 760.40625 269.808594 Z M 760.40625 264.828125 L 762.941406 264.828125 C 763.480469 264.828125 763.902344 264.769531 764.207031 264.660156 C 764.511719 264.546875 764.742188 264.367188 764.898438 264.125 C 765.058594 263.878906 765.136719 263.613281 765.136719 263.324219 C 765.136719 262.902344 764.984375 262.554688 764.675781 262.285156 C 764.371094 262.011719 763.886719 261.878906 763.226562 261.878906 L 760.40625 261.878906 Z M 760.40625 264.828125 "/>
<path style=" stroke:none;fill-rule:evenodd;fill:rgb(21.568298%,20.391846%,20.783997%);fill-opacity:1;" d="M 755.730469 265.730469 C 755.730469 262.035156 758.726562 259.039062 762.421875 259.039062 C 766.117188 259.039062 769.113281 262.035156 769.113281 265.730469 C 769.113281 269.425781 766.117188 272.421875 762.421875 272.421875 C 758.726562 272.421875 755.730469 269.425781 755.730469 265.730469 Z M 770.203125 265.730469 C 770.203125 261.433594 766.71875 257.949219 762.421875 257.949219 C 758.125 257.949219 754.640625 261.433594 754.640625 265.730469 C 754.640625 270.027344 758.125 273.511719 762.421875 273.511719 C 766.71875 273.511719 770.203125 270.027344 770.203125 265.730469 Z M 770.203125 265.730469 "/>
<path style=" stroke:none;fill-rule:nonzero;fill:rgb(21.568298%,20.391846%,20.783997%);fill-opacity:1;" d="M 254.914062 347.761719 C 254.914062 349.925781 254.183594 351.578125 252.726562 352.730469 C 251.261719 353.875 249.121094 354.445312 246.289062 354.445312 L 237.621094 354.445312 L 237.621094 330.597656 L 246.246094 330.597656 C 248.636719 330.597656 250.472656 331.050781 251.746094 331.957031 C 253.015625 332.863281 253.648438 334.3125 253.648438 336.308594 C 253.648438 336.855469 253.597656 337.421875 253.484375 338.015625 C 253.382812 338.605469 253.179688 339.148438 252.890625 339.660156 C 252.601562 340.164062 252.199219 340.617188 251.6875 341.019531 C 251.179688 341.421875 250.527344 341.703125 249.730469 341.882812 C 250.847656 341.980469 251.746094 342.222656 252.421875 342.609375 C 253.089844 342.988281 253.617188 343.457031 253.992188 344.015625 C 254.355469 344.566406 254.609375 345.167969 254.726562 345.828125 C 254.851562 346.492188 254.914062 347.136719 254.914062 347.761719 Z M 239.359375 352.707031 L 246.265625 352.707031 C 250.765625 352.707031 253.015625 351.054688 253.015625 347.761719 C 253.015625 346.902344 252.90625 346.164062 252.667969 345.539062 C 252.4375 344.914062 252.042969 344.402344 251.484375 344 C 250.921875 343.601562 250.183594 343.300781 249.261719 343.109375 C 248.339844 342.914062 247.179688 342.820312 245.789062 342.820312 L 239.359375 342.820312 Z M 239.359375 341.070312 L 245.769531 341.070312 C 247.886719 341.070312 249.449219 340.730469 250.445312 340.046875 C 251.449219 339.371094 251.953125 338.21875 251.953125 336.613281 C 251.953125 335.15625 251.484375 334.078125 250.554688 333.378906 C 249.628906 332.671875 248.140625 332.316406 246.097656 332.316406 L 239.359375 332.335938 Z M 270.917969 352.269531 C 270.324219 352.789062 269.742188 353.21875 269.179688 353.5625 C 268.613281 353.902344 268.054688 354.171875 267.511719 354.371094 C 266.972656 354.566406 266.429688 354.699219 265.894531 354.773438 C 265.351562 354.847656 264.808594 354.882812 264.257812 354.882812 C 263.515625 354.882812 262.824219 354.765625 262.183594 354.542969 C 261.550781 354.320312 260.992188 354 260.53125 353.582031 C 260.066406 353.175781 259.699219 352.667969 259.433594 352.082031 C 259.164062 351.496094 259.03125 350.847656 259.03125 350.132812 C 259.03125 348.203125 259.855469 346.699219 261.5 345.621094 C 263.148438 344.550781 265.617188 344.015625 268.917969 344.015625 L 270.917969 344.015625 C 270.917969 343.273438 270.875 342.589844 270.792969 341.964844 C 270.703125 341.339844 270.503906 340.804688 270.183594 340.34375 C 269.863281 339.882812 269.386719 339.527344 268.761719 339.265625 C 268.136719 339.003906 267.289062 338.871094 266.210938 338.871094 C 264.636719 338.871094 263.445312 339.117188 262.652344 339.613281 C 261.863281 340.105469 261.394531 340.855469 261.253906 341.859375 L 259.527344 341.859375 C 259.707031 340.261719 260.324219 339.074219 261.402344 338.300781 C 262.480469 337.519531 264.070312 337.132812 266.199219 337.132812 C 267.371094 337.132812 268.367188 337.273438 269.1875 337.5625 C 270.011719 337.859375 270.679688 338.277344 271.195312 338.820312 C 271.707031 339.363281 272.085938 340.023438 272.316406 340.804688 C 272.546875 341.578125 272.664062 342.453125 272.664062 343.429688 L 272.664062 354.445312 L 270.917969 354.445312 Z M 270.917969 345.753906 L 268.285156 345.753906 C 265.757812 345.753906 263.878906 346.121094 262.636719 346.847656 C 261.394531 347.570312 260.769531 348.609375 260.769531 349.957031 C 260.769531 350.960938 261.164062 351.738281 261.945312 352.296875 C 262.734375 352.863281 263.804688 353.136719 265.171875 353.136719 C 265.765625 353.136719 266.347656 353.046875 266.902344 352.871094 C 267.460938 352.683594 267.988281 352.445312 268.480469 352.15625 C 268.976562 351.867188 269.429688 351.546875 269.839844 351.191406 C 270.257812 350.832031 270.613281 350.492188 270.917969 350.15625 Z M 286.144531 338.917969 C 285.980469 338.886719 285.808594 338.871094 285.625 338.871094 C 285.445312 338.871094 285.238281 338.871094 284.992188 338.871094 C 284.492188 338.871094 284.015625 338.976562 283.550781 339.175781 C 283.089844 339.382812 282.640625 339.644531 282.226562 339.972656 C 281.800781 340.300781 281.40625 340.671875 281.042969 341.085938 C 280.6875 341.496094 280.375 341.917969 280.105469 342.359375 L 280.105469 354.445312 L 278.367188 354.445312 L 278.367188 337.5625 L 280.105469 337.5625 L 280.105469 339.898438 C 280.605469 339.316406 281.09375 338.84375 281.578125 338.484375 C 282.070312 338.121094 282.539062 337.839844 283 337.628906 C 283.453125 337.429688 283.890625 337.296875 284.316406 337.230469 C 284.730469 337.160156 285.117188 337.132812 285.46875 337.132812 C 285.585938 337.132812 285.691406 337.132812 285.792969 337.140625 C 285.898438 337.148438 286.007812 337.160156 286.144531 337.175781 Z M 291.347656 340.269531 C 291.792969 339.660156 292.269531 339.152344 292.757812 338.753906 C 293.257812 338.351562 293.75 338.03125 294.246094 337.792969 C 294.738281 337.554688 295.214844 337.386719 295.679688 337.28125 C 296.140625 337.183594 296.589844 337.132812 297.011719 337.132812 C 298.054688 337.132812 298.980469 337.339844 299.800781 337.75 C 300.609375 338.164062 301.292969 338.753906 301.84375 339.519531 C 302.394531 340.277344 302.816406 341.199219 303.109375 342.269531 C 303.398438 343.347656 303.546875 344.535156 303.546875 345.84375 C 303.546875 347.21875 303.367188 348.46875 303.019531 349.578125 C 302.667969 350.691406 302.195312 351.636719 301.589844 352.425781 C 300.988281 353.203125 300.285156 353.8125 299.457031 354.238281 C 298.640625 354.667969 297.753906 354.882812 296.8125 354.882812 C 295.984375 354.882812 295.085938 354.722656 294.113281 354.394531 C 293.140625 354.066406 292.21875 353.496094 291.347656 352.683594 L 291.347656 354.445312 L 289.609375 354.445312 L 289.609375 330.597656 L 291.347656 330.597656 Z M 291.347656 350.417969 C 292.128906 351.242188 292.945312 351.902344 293.792969 352.402344 C 294.648438 352.890625 295.585938 353.136719 296.617188 353.136719 C 298.1875 353.136719 299.441406 352.519531 300.386719 351.285156 C 301.332031 350.050781 301.800781 348.238281 301.800781 345.84375 C 301.800781 343.546875 301.359375 341.816406 300.46875 340.640625 C 299.585938 339.457031 298.351562 338.871094 296.765625 338.871094 C 295.726562 338.871094 294.757812 339.183594 293.882812 339.808594 C 293.003906 340.433594 292.15625 341.308594 291.347656 342.449219 Z M 314.757812 354.882812 C 313.582031 354.882812 312.511719 354.683594 311.554688 354.28125 C 310.601562 353.882812 309.777344 353.300781 309.085938 352.542969 C 308.394531 351.777344 307.859375 350.847656 307.488281 349.742188 C 307.109375 348.640625 306.914062 347.382812 306.914062 345.972656 C 306.914062 344.609375 307.101562 343.375 307.464844 342.285156 C 307.820312 341.183594 308.34375 340.253906 309.011719 339.496094 C 309.671875 338.730469 310.46875 338.148438 311.382812 337.742188 C 312.296875 337.332031 313.316406 337.132812 314.429688 337.132812 C 315.574219 337.132812 316.617188 337.332031 317.546875 337.742188 C 318.472656 338.148438 319.269531 338.730469 319.917969 339.496094 C 320.570312 340.253906 321.078125 341.183594 321.425781 342.285156 C 321.769531 343.375 321.945312 344.617188 321.945312 345.992188 L 321.945312 346.386719 L 308.660156 346.386719 C 308.742188 347.53125 308.957031 348.527344 309.292969 349.367188 C 309.628906 350.214844 310.058594 350.914062 310.59375 351.472656 C 311.136719 352.03125 311.753906 352.445312 312.460938 352.730469 C 313.167969 353.003906 313.933594 353.136719 314.757812 353.136719 C 315.335938 353.136719 315.917969 353.070312 316.496094 352.929688 C 317.085938 352.796875 317.605469 352.585938 318.082031 352.3125 C 318.550781 352.039062 318.949219 351.695312 319.269531 351.285156 C 319.582031 350.878906 319.777344 350.417969 319.835938 349.894531 L 321.550781 349.894531 C 321.394531 350.691406 321.113281 351.398438 320.703125 352.015625 C 320.296875 352.632812 319.796875 353.160156 319.203125 353.582031 C 318.609375 354.015625 317.933594 354.335938 317.171875 354.558594 C 316.421875 354.773438 315.613281 354.882812 314.757812 354.882812 Z M 320.183594 344.648438 C 319.894531 342.714844 319.234375 341.273438 318.207031 340.3125 C 317.1875 339.355469 315.925781 338.871094 314.429688 338.871094 C 313.695312 338.871094 313.003906 338.992188 312.363281 339.222656 C 311.722656 339.453125 311.152344 339.808594 310.652344 340.292969 C 310.148438 340.765625 309.730469 341.371094 309.390625 342.097656 C 309.046875 342.828125 308.804688 343.675781 308.660156 344.648438 Z M 334.25 338.917969 C 334.085938 338.886719 333.914062 338.871094 333.730469 338.871094 C 333.550781 338.871094 333.34375 338.871094 333.097656 338.871094 C 332.597656 338.871094 332.125 338.976562 331.65625 339.175781 C 331.195312 339.382812 330.75 339.644531 330.332031 339.972656 C 329.910156 340.300781 329.515625 340.671875 329.148438 341.085938 C 328.792969 341.496094 328.480469 341.917969 328.214844 342.359375 L 328.214844 354.445312 L 326.472656 354.445312 L 326.472656 337.5625 L 328.214844 337.5625 L 328.214844 339.898438 C 328.710938 339.316406 329.203125 338.84375 329.683594 338.484375 C 330.175781 338.121094 330.644531 337.839844 331.105469 337.628906 C 331.558594 337.429688 331.996094 337.296875 332.421875 337.230469 C 332.835938 337.160156 333.222656 337.132812 333.574219 337.132812 C 333.691406 337.132812 333.796875 337.132812 333.902344 337.140625 C 334.003906 337.148438 334.117188 337.160156 334.25 337.175781 Z M 339.5 354.445312 L 337.75 354.445312 L 337.75 337.5625 L 339.5 337.5625 Z M 341.847656 331.882812 L 338.664062 335.933594 L 336.734375 335.933594 L 338.664062 331.882812 Z M 356.203125 352.269531 C 355.609375 352.789062 355.027344 353.21875 354.464844 353.5625 C 353.898438 353.902344 353.339844 354.171875 352.796875 354.371094 C 352.253906 354.566406 351.710938 354.699219 351.175781 354.773438 C 350.632812 354.847656 350.09375 354.882812 349.542969 354.882812 C 348.796875 354.882812 348.105469 354.765625 347.46875 354.542969 C 346.835938 354.320312 346.277344 354 345.816406 353.582031 C 345.347656 353.175781 344.984375 352.667969 344.71875 352.082031 C 344.449219 351.496094 344.316406 350.847656 344.316406 350.132812 C 344.316406 348.203125 345.140625 346.699219 346.785156 345.621094 C 348.433594 344.550781 350.902344 344.015625 354.203125 344.015625 L 356.203125 344.015625 C 356.203125 343.273438 356.15625 342.589844 356.078125 341.964844 C 355.988281 341.339844 355.785156 340.804688 355.46875 340.34375 C 355.148438 339.882812 354.671875 339.527344 354.046875 339.265625 C 353.421875 339.003906 352.574219 338.871094 351.496094 338.871094 C 349.921875 338.871094 348.730469 339.117188 347.9375 339.613281 C 347.148438 340.105469 346.679688 340.855469 346.539062 341.859375 L 344.8125 341.859375 C 344.992188 340.261719 345.609375 339.074219 346.6875 338.300781 C 347.765625 337.519531 349.355469 337.132812 351.480469 337.132812 C 352.65625 337.132812 353.652344 337.273438 354.46875 337.5625 C 355.296875 337.859375 355.964844 338.277344 356.476562 338.820312 C 356.992188 339.363281 357.371094 340.023438 357.601562 340.804688 C 357.832031 341.578125 357.949219 342.453125 357.949219 343.429688 L 357.949219 354.445312 L 356.203125 354.445312 Z M 356.203125 345.753906 L 353.570312 345.753906 C 351.042969 345.753906 349.164062 346.121094 347.921875 346.847656 C 346.679688 347.570312 346.054688 348.609375 346.054688 349.957031 C 346.054688 350.960938 346.449219 351.738281 347.230469 352.296875 C 348.019531 352.863281 349.089844 353.136719 350.457031 353.136719 C 351.050781 353.136719 351.628906 353.046875 352.1875 352.871094 C 352.746094 352.683594 353.273438 352.445312 353.765625 352.15625 C 354.261719 351.867188 354.714844 351.546875 355.125 351.191406 C 355.542969 350.832031 355.898438 350.492188 356.203125 350.15625 Z M 356.203125 345.753906 "/>
<path style=" stroke:none;fill-rule:nonzero;fill:rgb(21.568298%,20.391846%,20.783997%);fill-opacity:1;" d="M 501.601562 354.445312 L 499.839844 354.445312 L 499.839844 342.574219 L 485.136719 342.574219 L 485.136719 354.445312 L 483.394531 354.445312 L 483.394531 330.597656 L 485.136719 330.597656 L 485.136719 340.835938 L 499.839844 340.835938 L 499.839844 330.597656 L 501.601562 330.597656 Z M 518.566406 352.269531 C 517.972656 352.789062 517.390625 353.21875 516.828125 353.5625 C 516.261719 353.902344 515.703125 354.171875 515.160156 354.371094 C 514.621094 354.566406 514.078125 354.699219 513.542969 354.773438 C 513 354.847656 512.457031 354.886719 511.90625 354.886719 C 511.164062 354.886719 510.472656 354.765625 509.832031 354.542969 C 509.199219 354.320312 508.640625 354 508.179688 353.582031 C 507.714844 353.175781 507.347656 352.667969 507.082031 352.082031 C 506.8125 351.496094 506.679688 350.847656 506.679688 350.132812 C 506.679688 348.203125 507.503906 346.699219 509.148438 345.621094 C 510.796875 344.550781 513.265625 344.015625 516.566406 344.015625 L 518.566406 344.015625 C 518.566406 343.273438 518.523438 342.589844 518.441406 341.964844 C 518.351562 341.339844 518.152344 340.804688 517.832031 340.34375 C 517.511719 339.882812 517.035156 339.527344 516.410156 339.265625 C 515.785156 339.003906 514.9375 338.871094 513.859375 338.871094 C 512.285156 338.871094 511.09375 339.117188 510.300781 339.613281 C 509.511719 340.105469 509.042969 340.855469 508.902344 341.859375 L 507.175781 341.859375 C 507.355469 340.261719 507.972656 339.074219 509.050781 338.300781 C 510.128906 337.519531 511.71875 337.132812 513.847656 337.132812 C 515.019531 337.132812 516.015625 337.273438 516.835938 337.5625 C 517.660156 337.859375 518.328125 338.277344 518.84375 338.820312 C 519.355469 339.363281 519.734375 340.023438 519.964844 340.804688 C 520.195312 341.578125 520.3125 342.453125 520.3125 343.429688 L 520.3125 354.445312 L 518.566406 354.445312 Z M 518.566406 345.753906 L 515.933594 345.753906 C 513.40625 345.753906 511.527344 346.121094 510.285156 346.847656 C 509.042969 347.570312 508.417969 348.609375 508.417969 349.957031 C 508.417969 350.960938 508.8125 351.738281 509.59375 352.296875 C 510.382812 352.863281 511.453125 353.136719 512.820312 353.136719 C 513.414062 353.136719 513.996094 353.046875 514.550781 352.871094 C 515.109375 352.683594 515.636719 352.445312 516.128906 352.15625 C 516.625 351.867188 517.078125 351.546875 517.488281 351.191406 C 517.90625 350.832031 518.261719 350.492188 518.566406 350.15625 Z M 548.320312 354.445312 L 546.578125 354.445312 L 546.578125 343.429688 C 546.578125 341.816406 546.324219 340.65625 545.828125 339.941406 C 545.324219 339.230469 544.445312 338.871094 543.179688 338.871094 C 542.253906 338.871094 541.34375 339.160156 540.46875 339.734375 C 539.589844 340.304688 538.734375 341.117188 537.910156 342.164062 L 537.910156 354.445312 L 536.164062 354.445312 L 536.164062 343.429688 C 536.164062 342.625 536.113281 341.933594 536 341.355469 C 535.894531 340.773438 535.710938 340.304688 535.449219 339.941406 C 535.183594 339.578125 534.839844 339.308594 534.410156 339.132812 C 533.984375 338.960938 533.457031 338.871094 532.832031 338.871094 C 531.917969 338.871094 531.050781 339.160156 530.214844 339.734375 C 529.390625 340.304688 528.558594 341.117188 527.71875 342.164062 L 527.71875 354.445312 L 525.972656 354.445312 L 525.972656 337.5625 L 527.71875 337.5625 L 527.71875 340.070312 C 528.296875 339.421875 528.839844 338.902344 529.359375 338.515625 C 529.875 338.128906 530.359375 337.839844 530.816406 337.628906 C 531.277344 337.429688 531.710938 337.296875 532.125 337.230469 C 532.535156 337.160156 532.9375 337.132812 533.308594 337.132812 C 534.402344 337.132812 535.332031 337.386719 536.097656 337.890625 C 536.871094 338.402344 537.425781 339.175781 537.777344 340.222656 C 538.214844 339.613281 538.675781 339.109375 539.160156 338.707031 C 539.648438 338.3125 540.140625 337.996094 540.640625 337.765625 C 541.144531 337.535156 541.648438 337.371094 542.15625 337.273438 C 542.660156 337.175781 543.160156 337.132812 543.636719 337.132812 C 546.757812 337.132812 548.320312 339.175781 548.320312 343.273438 Z M 555.65625 340.269531 C 556.101562 339.660156 556.578125 339.152344 557.066406 338.753906 C 557.566406 338.351562 558.058594 338.03125 558.554688 337.792969 C 559.046875 337.554688 559.523438 337.386719 559.988281 337.28125 C 560.449219 337.183594 560.898438 337.132812 561.320312 337.132812 C 562.363281 337.132812 563.289062 337.339844 564.109375 337.75 C 564.917969 338.164062 565.601562 338.753906 566.152344 339.519531 C 566.703125 340.277344 567.125 341.199219 567.417969 342.269531 C 567.707031 343.347656 567.855469 344.535156 567.855469 345.84375 C 567.855469 347.21875 567.675781 348.46875 567.328125 349.578125 C 566.976562 350.691406 566.503906 351.636719 565.898438 352.425781 C 565.296875 353.203125 564.589844 353.8125 563.765625 354.238281 C 562.949219 354.667969 562.0625 354.886719 561.121094 354.886719 C 560.292969 354.886719 559.394531 354.722656 558.421875 354.394531 C 557.449219 354.066406 556.527344 353.496094 555.65625 352.683594 L 555.65625 354.445312 L 553.917969 354.445312 L 553.917969 330.597656 L 555.65625 330.597656 Z M 555.65625 350.417969 C 556.4375 351.242188 557.253906 351.902344 558.101562 352.402344 C 558.957031 352.890625 559.894531 353.136719 560.925781 353.136719 C 562.496094 353.136719 563.75 352.519531 564.695312 351.285156 C 565.640625 350.050781 566.109375 348.238281 566.109375 345.84375 C 566.109375 343.546875 565.667969 341.816406 564.777344 340.640625 C 563.894531 339.460938 562.660156 338.871094 561.074219 338.871094 C 560.035156 338.871094 559.066406 339.183594 558.191406 339.808594 C 557.3125 340.433594 556.464844 341.308594 555.65625 342.449219 Z M 583.535156 352.179688 C 583.109375 352.691406 582.632812 353.117188 582.105469 353.457031 C 581.570312 353.800781 581.035156 354.074219 580.492188 354.28125 C 579.949219 354.492188 579.40625 354.648438 578.878906 354.742188 C 578.351562 354.832031 577.875 354.886719 577.453125 354.886719 C 573.996094 354.886719 572.269531 352.824219 572.269531 348.714844 L 572.269531 337.5625 L 574.011719 337.5625 L 574.011719 348.566406 C 574.011719 350.148438 574.308594 351.308594 574.894531 352.039062 C 575.484375 352.773438 576.5 353.136719 577.957031 353.136719 C 579 353.136719 579.988281 352.847656 580.910156 352.269531 C 581.832031 351.6875 582.703125 350.863281 583.535156 349.785156 L 583.535156 337.5625 L 585.273438 337.5625 L 585.273438 354.445312 L 583.535156 354.445312 Z M 598.558594 338.917969 C 598.394531 338.886719 598.222656 338.871094 598.039062 338.871094 C 597.859375 338.871094 597.652344 338.871094 597.40625 338.871094 C 596.90625 338.871094 596.433594 338.976562 595.964844 339.175781 C 595.503906 339.386719 595.058594 339.644531 594.640625 339.972656 C 594.214844 340.300781 593.824219 340.671875 593.457031 341.085938 C 593.101562 341.496094 592.789062 341.917969 592.523438 342.359375 L 592.523438 354.445312 L 590.78125 354.445312 L 590.78125 337.5625 L 592.523438 337.5625 L 592.523438 339.898438 C 593.019531 339.316406 593.511719 338.84375 593.992188 338.484375 C 594.484375 338.121094 594.953125 337.839844 595.414062 337.628906 C 595.867188 337.429688 596.304688 337.296875 596.730469 337.230469 C 597.144531 337.160156 597.53125 337.132812 597.882812 337.132812 C 598 337.132812 598.105469 337.132812 598.207031 337.140625 C 598.3125 337.148438 598.425781 337.160156 598.558594 337.175781 Z M 614.734375 353.441406 C 614.734375 354.796875 614.59375 355.949219 614.304688 356.898438 C 614.015625 357.851562 613.582031 358.625 613.011719 359.21875 C 612.429688 359.8125 611.710938 360.246094 610.839844 360.519531 C 609.96875 360.796875 608.957031 360.9375 607.8125 360.9375 C 606.855469 360.9375 605.992188 360.832031 605.21875 360.625 C 604.453125 360.410156 603.792969 360.109375 603.242188 359.71875 C 602.683594 359.324219 602.253906 358.839844 601.941406 358.261719 C 601.628906 357.679688 601.449219 357.019531 601.40625 356.273438 L 603.152344 356.273438 C 603.226562 357.277344 603.636719 358.015625 604.394531 358.484375 C 605.144531 358.957031 606.265625 359.195312 607.746094 359.195312 C 608.617188 359.195312 609.382812 359.09375 610.035156 358.878906 C 610.691406 358.667969 611.234375 358.320312 611.664062 357.84375 C 612.101562 357.367188 612.429688 356.734375 612.660156 355.949219 C 612.882812 355.167969 612.996094 354.199219 612.996094 353.046875 L 612.996094 351.984375 C 612.429688 352.65625 611.894531 353.183594 611.398438 353.5625 C 610.890625 353.949219 610.410156 354.238281 609.949219 354.4375 C 609.480469 354.632812 609.03125 354.757812 608.609375 354.804688 C 608.179688 354.855469 607.761719 354.886719 607.351562 354.886719 C 606.296875 354.886719 605.359375 354.667969 604.542969 354.253906 C 603.734375 353.828125 603.046875 353.234375 602.5 352.476562 C 601.949219 351.710938 601.53125 350.796875 601.25 349.71875 C 600.960938 348.648438 600.816406 347.449219 600.816406 346.128906 C 600.816406 344.730469 600.988281 343.480469 601.332031 342.367188 C 601.671875 341.257812 602.148438 340.3125 602.75 339.539062 C 603.351562 338.761719 604.058594 338.164062 604.882812 337.75 C 605.703125 337.339844 606.585938 337.132812 607.53125 337.132812 C 607.933594 337.132812 608.355469 337.160156 608.796875 337.222656 C 609.226562 337.273438 609.679688 337.386719 610.140625 337.535156 C 610.609375 337.691406 611.078125 337.890625 611.5625 338.15625 C 612.035156 338.417969 612.519531 338.753906 612.996094 339.152344 L 612.996094 337.5625 L 614.734375 337.5625 Z M 612.996094 341.308594 C 612.214844 340.5 611.398438 339.890625 610.542969 339.480469 C 609.695312 339.078125 608.757812 338.871094 607.722656 338.871094 C 606.945312 338.871094 606.230469 339.019531 605.597656 339.316406 C 604.964844 339.613281 604.429688 340.070312 603.976562 340.671875 C 603.53125 341.273438 603.183594 342.03125 602.9375 342.9375 C 602.683594 343.84375 602.566406 344.90625 602.566406 346.128906 C 602.566406 348.417969 603.003906 350.164062 603.886719 351.351562 C 604.78125 352.542969 606.015625 353.136719 607.597656 353.136719 C 608.640625 353.136719 609.597656 352.855469 610.46875 352.277344 C 611.335938 351.703125 612.183594 350.855469 612.996094 349.71875 Z M 626.84375 337.132812 C 627.988281 337.132812 629.03125 337.332031 629.960938 337.726562 C 630.890625 338.128906 631.683594 338.707031 632.332031 339.472656 C 632.984375 340.230469 633.492188 341.160156 633.839844 342.261719 C 634.183594 343.355469 634.359375 344.597656 634.359375 345.972656 C 634.359375 347.382812 634.183594 348.640625 633.824219 349.742188 C 633.46875 350.847656 632.964844 351.777344 632.308594 352.542969 C 631.664062 353.300781 630.867188 353.882812 629.9375 354.28125 C 629.007812 354.683594 627.976562 354.886719 626.84375 354.886719 C 625.714844 354.886719 624.6875 354.683594 623.765625 354.289062 C 622.84375 353.902344 622.058594 353.324219 621.402344 352.566406 C 620.75 351.800781 620.234375 350.871094 619.878906 349.761719 C 619.515625 348.664062 619.328125 347.398438 619.328125 345.972656 C 619.328125 344.582031 619.507812 343.332031 619.863281 342.238281 C 620.222656 341.140625 620.726562 340.21875 621.382812 339.460938 C 622.035156 338.707031 622.824219 338.128906 623.753906 337.726562 C 624.683594 337.332031 625.714844 337.132812 626.84375 337.132812 Z M 626.84375 353.136719 C 627.699219 353.136719 628.480469 352.988281 629.1875 352.691406 C 629.894531 352.394531 630.496094 351.949219 631.007812 351.347656 C 631.511719 350.738281 631.90625 349.992188 632.191406 349.101562 C 632.472656 348.207031 632.613281 347.160156 632.613281 345.972656 C 632.613281 344.796875 632.472656 343.761719 632.191406 342.871094 C 631.90625 341.980469 631.511719 341.234375 631.007812 340.648438 C 630.496094 340.0625 629.894531 339.613281 629.1875 339.316406 C 628.480469 339.019531 627.699219 338.871094 626.84375 338.871094 C 625.976562 338.871094 625.1875 339.019531 624.480469 339.316406 C 623.78125 339.613281 623.171875 340.0625 622.667969 340.648438 C 622.152344 341.234375 621.765625 341.980469 621.484375 342.871094 C 621.210938 343.761719 621.078125 344.796875 621.078125 345.972656 C 621.078125 347.160156 621.210938 348.207031 621.484375 349.101562 C 621.765625 349.992188 622.152344 350.738281 622.667969 351.347656 C 623.171875 351.949219 623.78125 352.394531 624.480469 352.691406 C 625.1875 352.988281 625.976562 353.136719 626.84375 353.136719 Z M 626.84375 353.136719 "/>
</g>
</svg>
